<?xml version="1.0" encoding="utf-8"?>
<!-- Generator: Adobe Illustrator 23.1.0, SVG Export Plug-In . SVG Version: 6.00 Build 0)  -->
<svg version="1.1" id="Слой_1" xmlns="http://www.w3.org/2000/svg" xmlns:xlink="http://www.w3.org/1999/xlink" x="0px" y="0px"
	 viewBox="0 0 1562.9 909.5" style="enable-background:new 0 0 1562.9 909.5;" xml:space="preserve">
<style type="text/css">
	.st0{clip-path:url(#SVGID_2_);}
	.st1{fill:#8B83F6;}
	.st2{clip-path:url(#SVGID_4_);}
	.st3{fill:#CEFD3B;}
</style>
<title>Монтажная область 1</title>
<g>
	<defs>
		<rect id="SVGID_1_" y="2.2" width="1562.9" height="905.4"/>
	</defs>
	<clipPath id="SVGID_2_">
		<use xlink:href="#SVGID_1_"  style="overflow:visible;"/>
	</clipPath>
	<g class="st0">
		<path class="st1" d="M1214.2,630.1c3.3-2.5,6.5-5,9.7-7.5c19.8-15.9,42.3-28,66.6-35.8c12.3-4,24.8-7.5,37.2-11.3
			c6.6-2,13.2-4.2,19.6-6.6c7.8-2.9,15.3-6.3,21.5-12c0.6-0.5,1.3-1,2-1.4c1.2-0.8,2.8-0.6,3.8,0.4c0.9,0.9,1.8,2.3,1.7,3.4
			c-0.4,2.1-1,4.2-2,6.2c-4.6,10.3-11.3,19.2-19,27.4c-8.3,8.8-17.7,16.4-27.2,23.9c-11.7,9.3-22.1,19.6-30.3,32.2
			c-4.6,6.8-7.9,14.4-9.8,22.3c-0.8,3.4-1.2,6.9-1.1,10.5c0.2,6.4,3.4,10,9.8,11.3c7.7,1.7,15.8-0.4,21.6-5.7
			c4.4-3.8,8.3-8,11.7-12.6c4.8-6.6,9.2-13.5,13.3-20.6c5.5-9.7,10.4-19.8,15.5-29.7c8.6-16.5,17.9-32.4,30.1-46.7
			c22.9-27,51.1-49.3,82.9-65.3c13.1-6.6,27-11,41.1-15.1c8.2-2.4,16.4-4.7,24.6-7.4c6.3-2,12.8-3.3,19.4-4c7.4-1,14.7-2.4,22-3.7
			c0.8-0.2,1.6-0.4,2.3-0.8c1.3-0.6,2.6-1.5,2.1-3c-0.5-1.2-1.4-2.3-2.6-2.8c-1.3-0.4-2.7-0.4-4-0.1c-6.5,1.1-13,2.3-19.6,3.6
			c-3,0.7-6.2-0.3-8.1-2.7c-11.3-12.5-14-26.7-9-42.4c2.7-8.4,7.6-15.7,13.2-22.4c14.2-17.2,31.4-30.5,52.5-38.6
			c8.8-3.3,17.5-6.8,26.2-10.3c5.9-2.4,11.7-5,17.3-7.8c9.9-4.9,16-13.1,20.2-22.9c2.1-5.4,2.6-11.2,1.3-16.8
			c-1.2-6.1-2-12.3-3.2-18.5c-1.5-8.3,0.1-16.2,3.1-23.9c3.7-9.4,9.3-17.9,16.6-25c13.4-13.4,28.9-24.6,45.9-33.2
			c8.9-4.4,17.7-9,26.4-13.7c15.5-8.6,30-18.6,43.4-30.1c12.8-10.7,23-23.5,31.4-37.6c1.7-2.8,2.7-6,4.2-8.8c1-1.6,2.2-3,3.7-4.2
			c1.5-1.2,4.2-0.1,4.7,1.7c0.3,1.1,0.4,2.1,0.6,3.2c2.2,17.4,2,34.7-2.2,51.8c-5.5,22.5-17.3,41.6-33.4,58.2
			c-6.7,6.9-13.7,13.4-20.6,20.1c-7.2,6.8-13.6,14.3-19.1,22.5c-1.9,2.7-3.5,5.5-4.9,8.5c-5,10.9-4.9,21.4,2.3,31.6
			c5.6,8,11,16.3,16.2,24.6c5.2,8.3,9.1,17.4,11.5,26.9c4,14.8,3.3,30.4-1.9,44.8c-9.7,26.5-27,47.1-51.5,61.8
			c-3.3,1.9-6.9,3.4-10.6,4.4c-19.4,5.5-38.9,10.4-58.9,13.2c-3,0.5-5.9,1.2-8.8,2.1c-0.9,0.5-1.5,1.5-1.5,2.5c0.2,1,1,1.9,2.1,2.2
			c3.3,0.4,6.6,0.5,9.8,0.1c10.6-1.8,21.2-3.9,31.7-6.2c7.3-1.6,14.5-3.5,21.7-5.4c2.7-0.7,5-0.2,6.7,2c2.2,2.8,4.6,5.5,6.1,8.6
			c6.7,14.1,8.1,28.6,2.8,43.5c-3.6,10.6-9.6,20.3-17.4,28.5c-7.6,7.9-16,15.1-25,21.4c-18.8,13-37.8,25.7-56.6,38.6
			c-8.6,5.9-17.2,11.9-25.5,18.2c-7.7,5.8-14.7,12.4-21.1,19.6c-5.2,5.7-9.4,12.1-12.8,19c-2.7,5.5-3.3,11.4-3.2,17.4
			c0.1,6.9,7.8,14,16.1,13.1c3.3-0.4,6.5-1.2,9.6-2.4c14.2-5.6,27.4-12.9,38.9-23c4.3-3.8,8-8.2,11.9-12.5c1.3-1.4,2.3-3.1,3.6-4.4
			c2.7-2.9,6.3-2.3,7.9,1.5c0.9,2,1.5,4.1,1.8,6.2c2.4,16.2-1,31.3-9.7,45.2c-6,9.8-13.9,18.4-23.2,25.3
			c-5.3,3.9-10.8,7.5-16.3,11.2c-6.8,4.6-13.8,9-20.6,13.7c-5.9,4.1-10.9,9.3-14.7,15.3c-3.5,5.3-5.5,11.3-6,17.6
			c-0.7,8.4-2.3,16.7-4.7,24.7c-1.3,4.7-3.7,9.1-7,12.8c-3.9,4.2-8.1,8.2-12.2,12.2c-2.6,2.5-6.1,3.8-9.8,3.7
			c-14.7,0.2-29.3,0.7-44,0.8c-28.5,0.2-57,0.2-85.5,0.4c-40.1,0.2-80.2,0.5-120.3,0.8c-39.6,0.3-79.1,0.6-118.7,0.9l-116.2,0.9
			c-36,0.3-71.9,0.5-107.9,0.7l-129.5,1l-120.4,0.9l-117.9,0.9c-39.5,0.3-79.1,0.6-118.7,0.8l-120.3,0.9l-116.2,0.9
			c-36.2,0.3-72.5,0.5-108.7,0.7c-44,0.3-88,0.6-132,1c-31.5,0.3-63.1,0.6-94.6,0.9c-3.3,0-6.7-0.1-10-0.5c-1.6-0.2-3.2-0.7-4.7-1.5
			c-2.8-1.6-3.8-5.2-2.2-8c0.4-0.6,0.9-1.2,1.5-1.7c1.1-0.8,2.3-1.5,3.5-2.1c21-11.4,38.5-27.9,51-48c7.5-12.1,13.6-24.9,19.8-37.6
			c2.1-4.7,3.8-9.6,5.3-14.5c16.5-48.3,40.1-92.9,69.3-134.8c15-21.5,30.6-42.6,48-62.4c16.5-18.7,34.8-35.7,53.6-52.1
			c32.8-28.6,70.3-49.8,110.1-67.3c4.6-2,9.2-3.8,13.8-5.6c17.2-6.8,34.5-13.2,51.5-20.3c19.6-8.1,38.8-17.3,57.7-26.9
			c10-5,18.2-12.2,26.5-19.5c15.3-13.6,27.5-29.6,38.6-46.6c10.2-15.6,20.4-31.1,30.7-46.5c10.2-14.9,22-28.6,35.4-40.8
			c3.6-3.4,7.5-6.5,11.5-9.3c13.2-9.4,27.2-17.7,41.9-24.7c17-7.9,34.4-14.9,52.2-20.8c9.1-3.1,18.3-6.3,27.4-9.3
			c12.8-4.2,25.2-9.8,36.8-16.7c11.4-6.6,20.9-15.1,27.3-26.7c3-5.5,6.4-10.8,9.4-16.3c11.8-21.3,27.4-39.5,45.9-55.2
			s40-26,63.5-32.5c8.3-2.3,16.6-4.1,25.1-5.4c7.6-1.2,15.2-2.8,22.7-4.8c3.8-1,6.4,0.3,8.9,2.7c1.3,1.3,0.9,4.3-0.7,5
			c-1.7,0.8-3.6,1.4-5.5,1.8C839,34,818.5,47.1,799.9,64c-8,7.3-13.8,16.2-18.5,25.9c-5.7,11.5-9.8,23.6-12.3,36.1
			c-2.1,10.9-5.1,21.7-9.1,32.1c-5.4,14.1-13.8,26.5-23.3,38.3c-10.4,12.8-23.3,23.4-38.1,31c-9.8,5.1-19.8,9.8-29.6,14.6
			c-9.7,4.7-19.3,9.3-28.9,14.2c-7.1,3.7-13.6,8.5-19.1,14.2c-1.7,1.7-3.3,3.7-4.9,5.5c-6.8,8.1-9,17.3-6.1,27.5
			c2.3,8.1,3,16.6,2.2,25c-1.3,14.6-7.4,26.6-20.4,34.6c-3,1.9-6.2,3.6-9.3,5.4c-5,2.9-10.1,5.6-15,8.7c-3.2,2.1-6.7,3.7-10.4,4.9
			c-11.6,3.6-22.4,9.5-31.7,17.3c-2.6,2.4-5.1,5-7.4,7.7c-0.7,0.8-1.2,1.9-1.3,2.9c0.1,1,0.6,2,1.3,2.7c0.6,0.5,1.5,0.7,2.2,0.5
			c2.8-1.6,5.6-3.5,8.1-5.6c5.6-4.9,11.8-9,18.5-12.4c1-0.5,2-0.9,3.1-1.3c1.1-0.4,1.4,0.5,1.5,1.3c1.3,19.6-6.9,35.4-21.7,48
			c-6.3,5.3-13.2,9.8-20,14.5c-9.1,6.2-18.4,12.1-26.6,19.4c-8.3,7.2-15.4,15.7-21.1,25c-2.4,4-4.5,8.1-4.5,13
			c0,4.2,2.2,7.4,6.4,8.2c2.2,0.4,4.4,0.5,6.5,0.2c5.4-0.9,10.7-2.6,15.7-5c27.7-12.2,51.2-32,67.7-57c3.4-5,6.6-10,9.7-15.2
			c14.4-24.1,32.8-44.9,54.5-63c12-10.1,24.3-19.7,37.9-27.7c1.3-1,2.8-1.7,4.3-2.3c1.3-0.2,2.6,0.1,3.7,1c0.7,1.1,1,2.4,0.7,3.7
			c-0.3,1-0.9,2-1.7,2.7c-1.1,1.2-2.3,2.3-3.6,3.3c-10.7,8.8-18.9,19.8-26.3,31.3c-5.5,8.5-9.5,17.8-11.9,27.6
			c-2.5,10-4.7,20.1-6.9,30.2c-1.9,8.8-4.7,17.3-8.4,25.5c-4.2,8.9-9.8,17-16.8,24.1c-7.1,7.3-15.6,13.1-25,17.1
			c-8.8,3.9-17.7,7.7-26.5,11.7c-3,1.4-5.9,3.1-8.6,4.9c-1.3,0.9-2.4,2.2-3.2,3.6c-0.4,1-0.4,2.1,0.2,3c0.7,0.8,1.7,1.2,2.8,1.1
			c2.9-0.9,5.7-2,8.4-3.3c4.8-2.1,9.5-4.4,14.3-6.5c0.4-0.3,1-0.3,1.5-0.2c0.4,0.4,0.5,0.9,0.5,1.4c-4.2,14.3-8.4,28.6-12.6,43
			c-4.9,16.8-15,30.1-29.1,40.6c-7.6,5.9-16.1,10.7-25,14.4c-6.7,2.6-13.5,4.7-20.5,6.3c-21.3,5-42.8,8.6-64.8,8.2
			c-2.5,0.1-4.9,0.5-7.3,1.1c-0.7,0.3-1.2,1-1.3,1.8c0,0.8,0.4,1.5,1,2c0.9,0.7,1.9,1.1,3,1.3c4.4,0.6,8.8,0.8,13.2,0.8
			c16.1-0.5,31.9-2.8,47.6-6c2.7-0.7,5.6,0.2,7.3,2.4c3.1,3.2,4.9,7.3,5.2,11.7c0.5,6-0.7,12-3.4,17.4c-2.9,5.9-6.8,11.2-11.7,15.7
			c-6.5,5.9-13.4,11.4-20.1,17c-4.4,3.7-9,7.2-13.3,11c-5.9,5-10.9,10.9-14.8,17.5c-3.5,6.1-5,12.6-2.3,19.6
			c1.9,4.8,4.8,8.7,9.6,10.7c3.5,1.4,7.3,2.9,11.1,3.1c25.5,1.3,48-5.9,66.9-23.1c6.3-5.8,11-13,13.8-21.1
			c3.1-8.7,5.7-17.6,8.5-26.4c2.2-7.3,4.2-14.6,6.8-21.8c6.4-17.9,16.4-33.7,28.9-48.1c22.9-26.3,51.4-45.1,82.9-59.9
			c17.2-5.9,32-16,46.1-27c6.3-4.9,11.8-10.7,17.6-16.1c1.2-1.1,2.2-2.4,3.5-3.4c1.4-0.9,3.3-0.9,4.7,0c1.1,0.8,1.8,2.1,1.6,3.5
			c0,0.5,0,1.1-0.2,1.6c-4,13-7.2,26.2-14.2,38.1c-6.8,11.8-14.8,23-23.8,33.2c-4.8,5.3-9.3,10.8-13.8,16.3
			c-9.3,11.7-13.8,25.1-15.3,39.8c-0.7,7-2,14-3.3,20.9c-3,15.4-10.3,28.5-21.2,39.9c-2.1,2.2-4.3,4.3-6.4,6.4
			c-0.3,0.4-0.5,0.9-0.6,1.4c0.5,0.1,1,0.4,1.5,0.3c2.7-0.7,5.3-1.7,7.8-2.7c12.8-5.9,24.6-13.6,35.3-22.7
			c21.7-18.7,37-41.6,46.9-68.1c7.8-21.2,15.6-42.4,23.7-63.5c7.5-19.6,15.2-39.1,25.3-57.6c7.6-13.9,16.2-27.2,25.8-39.8
			c14.6-19.2,32.6-35.7,53.3-48.4c8.4-5.2,16.8-10.5,25.6-15.1c6-3,10.4-8.2,12.4-14.5c1.3-3.9,2.3-7.8,3.1-11.8
			c6.4-30.5,20.5-57.2,41.6-80.3c12.5-13.9,27.6-25.3,44.6-33.4c7.7-3.6,15.5-7.2,23.2-10.8c4.7-2.2,9.5-4.4,14.2-6.7
			c9.2-4.5,17.5-10.5,24.7-17.7c5.5-5.4,9.9-11.7,13.1-18.7c1.8-4.2,3.8-8.4,5.6-12.7c7.5-17.9,19-33,33.3-46.2
			c24.4-22.7,54.2-39.1,86.7-47.7c8.5-2.3,17.3-3.6,26.2-3.8c3.9-0.1,7.7-0.7,11.6-1s7.7-0.3,11.6-0.6c4.2-0.3,6.7,2.1,8.9,5.1
			c1.1,1.7,0.6,3.9-1.1,5c-2.2,1.2-4.4,2.2-6.7,3.1c-6.2,2.4-12.5,4.4-18.5,7c-22.2,9.9-42.5,23.6-59.9,40.4
			c-12.2,11.5-21.4,25.8-26.6,41.6c-4,11.9-7.7,23.8-12.1,35.5c-6.4,16.8-15.3,32.6-26.3,46.9c-11.9,15.7-27.3,27.7-44.8,36.9
			c-10,5.2-16,12.9-19.1,23.3c-3.1,10.7-4.7,21.8-4.8,32.9c-0.1,6.2,0,12.5-0.1,18.7c0,3.5-0.2,7.1-0.4,10.6
			c-0.4,6.2-2.2,12.3-5.5,17.7c-8.3,14.2-18.6,27-30.8,38.2c-9.3,8.5-19.3,16.3-29.9,23.2c-4.6,2.9-9.5,5.5-14.3,8.3
			c-1.6,1-3.1,2.2-4.5,3.5c-0.4,0.7-0.4,1.5-0.1,2.2c0.4,0.7,1,1.2,1.8,1.4c1.4,0.1,2.7-0.1,4-0.5c4.3-1.8,8.5-3.9,12.5-6.2
			c12.8-7.7,24.3-17,35.4-26.9c1.2-1.1,2.4-2.2,3.6-3.4c1.4-1.3,3.4-2,5.3-1.7c5.6,0.2,11,2.5,15,6.4c4.7,4.3,8.2,9.6,10.2,15.6
			c3.5,10,3.8,20.2,2,30.5c-2.4,14-7.6,27.2-13.7,40c-9.3,19.5-21.5,37.3-34.8,54.3c-5.7,7.3-11.7,14.5-17.5,21.7
			c-4.6,5.5-9.8,10.4-15.5,14.7c-11.1,8.9-22.9,17-35.3,24.2c-3.1,1.8-6.1,3.7-9.1,5.7c-0.9,0.6-1.8,1.3-2.4,2.2
			c-0.4,0.7-0.5,1.5-0.3,2.2c0.5,0.6,1.2,1.1,2,1.1c1.6-0.1,3.3-0.5,4.8-1.1c3.8-1.6,7.6-3.5,11.1-5.6c8.6-5.5,17.4-10.7,25.3-17
			c6-4.8,12-5,18.6-3.6c9,2,14,8.7,13.5,17.9c-0.5,5.1-1.9,10.1-4.4,14.7c-5,10.4-11.9,19.6-19.5,28.3c-5.6,6.4-11.4,12.5-17.3,18.7
			c-5.1,5.3-10.6,10.4-15.7,15.7c-2.2,2.4-5.8,4-6.1,7.9c3.5,0.5,6.3-1.3,9.4-2.4c8.3-3,16.1-7.2,23.2-12.5
			c10-7.3,19.8-14.8,29.7-22.3c11.2-8.4,22.7-16.4,35.6-22.3c4-1.8,8.1-3.5,12.3-4.9c2.9-1,5.8-1.7,8.8-2.1
			c5.5-0.5,10.3,0.8,13.7,5.7c2.5,3.7,2.7,3.6,5.3-0.1c5.6-7.8,9.3-16.7,11.1-26c1.8-9.6,3.4-19.2,5.2-28.8
			c3.6-18.7,10.3-36.7,19.8-53.3c3.2-5.7,6.7-11.2,10.3-16.7c15-23.6,35.2-41.8,59.8-55.3c14.2-7.9,28.8-15,43.3-22.3
			c16.7-8.5,33.6-16.7,50.1-25.3c17.8-9.4,34.6-20.6,50-33.4c2.7-2.3,5.2-4.8,7.8-7.2c0.2-0.2,0.4-0.5,0.3-0.7
			c-0.2-0.2-0.4-0.4-0.7-0.4c-0.5,0-1.1,0-1.6,0.1c-7.1,1.7-14.3,1.2-21.5,0.9c-0.8,0-1.7-0.1-2.5-0.3c-15.2-2.7-22-13.6-20.7-25.9
			c0.6-5.4,2.1-10.7,4.5-15.6c4.9-10.6,12.6-19.1,21-27c9.1-8.4,19-15.9,29.5-22.4c11.4-7.2,23-14,34.4-21.3
			c9-5.8,17.9-11.8,26.5-18.2c10.2-7.6,19.3-16.3,26.6-26.7c2.7-3.8,4.8-8,6-12.5c7.1-27.2,21.5-50.4,40.5-71.1
			c14.1-15.4,30.3-28.5,47.7-40.3c17.4-11.8,35.8-21.7,54.2-31.6c16.2-8.8,32.5-17.4,48.4-26.8c17.8-10.5,33.8-23.7,47.5-39.1
			c6.5-7.4,12.3-15.4,17-24.1c1.9-3.5,3.9-7.1,2.7-11.5c-0.7-2.6,1.3-4.6,3.1-6.3c1.5-1.4,4.9-0.6,5.6,1.3c0.4,1,0.7,2.1,0.7,3.1
			c0.2,4.9,0.3,9.8,0.5,14.7c0.2,10.2-1.9,19.9-5.1,29.6c-6,18.5-14.9,35.6-25.5,51.9c-9.8,14.8-20.8,28.8-32.9,41.9
			c-17.2,18.8-35.8,36.2-54.5,53.6c-7,6.5-13.8,13.3-20.6,20.1c-11.4,11.6-18.4,25.7-22.9,41c-1.8,6.2-3.4,12.6-5,18.9
			c-6,24.2-18.2,45.3-34.5,64.2c-10.3,12.1-22.1,22.9-35,32.3c-4,3-8.5,5.1-13.3,6.4c-13.1,3.3-26.1,7-39.7,8.3
			c-1.6,0.2-3.2,0.8-4.7,1.6c-0.7,0.4-1.1,1.2-1.1,2c0.1,0.8,0.5,1.5,1.2,2c1.3,0.5,2.6,0.8,4,0.9c6.7,0.5,13.2-1,19.7-2.3
			c5.1-1.1,10.2-2.4,15.3-3.7c2.1-0.6,4.5-0.2,6.3,1.1c11.3,7.8,17.9,18.4,19.3,31.8c1.5,14.4-1,28.9-7.5,42
			c-6.6,13.6-15.9,25.4-26.5,36.2c-9.3,9.3-19.5,17.7-30.2,25.3c-16.2,11.4-33.3,21.5-51.1,30.3c-11.8,6-23.6,11.8-35.3,18
			c-15.2,8-29.3,17.4-41.3,29.7c-3.6,3.7-6.9,7.8-10.2,11.8c-0.8,1-1,2.5-1.4,3.7c-0.2,0.1-0.4,0.3-0.6,0.5
			C1213.9,630.6,1214.1,630.4,1214.2,630.1z"/>
		<path class="st1" d="M1165.3,306c-3,0-6.1-0.1-9.1,0c-1.9-0.1-3.9,0-5.8,0.3c-1.3,0.4-2.4,1.1-3.2,2.1c-0.7,0.9,1,2.8,3,3.2
			c7.5,1.7,15.3,2.2,23,1.4c10.5-0.9,20.8-2.4,31.1-4.7c1.6-0.5,3.3-0.2,4.7,0.9c7.4,5.8,13,12.8,13.1,22.6c-0.1,4.6-0.7,9.1-2,13.6
			c-2.2,8.2-6.6,15.5-11.5,22.5c-8.1,11.5-18.3,21-29.7,29.3c-11.9,8.5-24.3,16.1-37.3,22.8c-15.8,8.4-31.6,16.8-47.3,25.3
			c-4.8,2.6-9.4,5.8-14,8.7c-19.7,12.2-32.8,29.6-41,50.7c-0.9,2.3-1.7,4.6-2.7,6.9c-0.7,1.5-2.4,2.4-4.1,2.1
			c-1.7-0.2-3-1.6-3.1-3.3c0-4.6-0.4-9.3,0.2-13.8c1.3-9.9,2.6-19.9,4.9-29.7c6.4-27,18.7-50.9,39.4-70.3
			c13.4-12.6,29.6-22.1,47.3-27.7c3.2-1,6.3-2,9.4-3.2c1.6-0.5,3-1.3,4.4-2.3c0.7-0.8,1-1.8,0.9-2.8c0-0.5-1.2-1.3-1.8-1.2
			c-3,0-6,0.3-9,1c-4.8,1.3-9.4,3.2-14.1,4.8c-2.1,0.7-4.1,1.5-6.1,2.4c-2,1-4.4,0.8-6.3-0.4c-12.7-6.7-19.8-16.8-20.6-31.2
			c-0.9-18.2,6.1-33.4,17.9-46.8c10.6-12.1,23.5-21.3,37.5-29.3c13.7-7.8,28.3-13.5,42.9-19.3c7.7-3.1,15.3-6.2,23-9.3
			c9.7-4,18.9-9,27.4-15.1c6.7-4.8,12.6-10.6,17.6-17.2c6-7.8,11.4-16,16.1-24.5c4.4-8.4,9.6-16.5,15.4-24.2
			c11.3-14.4,25.6-25.5,41.4-34.7c12.3-7.2,25-13.8,38.9-17.9c1.3-0.5,2.6-0.9,3.9-1.2c2.5-0.3,4.8,1.4,5.1,3.8
			c0.1,0.6,0,1.2-0.1,1.8c-0.5,1.6-1.3,3-2.2,4.3c-2,2.6-4.1,5.2-6.3,7.6c-16.8,17.7-30.5,38-40.5,60.2c-3.4,7.7-6.2,15.7-9.2,23.6
			c-1.3,3.6-2.4,7.2-3.7,10.8c-8.3,23.8-23,44.9-42.4,61.2c-8.7,7.6-17.9,14.5-27.6,20.8c-5.1,3.2-10.7,5.7-16.5,7.3
			C1199.9,302.7,1182.9,306.1,1165.3,306z M643.1,469.6l-2-0.4c-1.6-0.4-2.7-2.6-1.7-3.9c0.8-1.1,1.8-2,2.9-2.7
			c1.4-0.8,3-1.4,4.7-1.6c6.6-0.9,10.9-4.9,14.8-9.7c7.1-8.7,13.4-17.9,18.9-27.7c6.4-11.1,12.3-22.4,18.4-33.7
			c8.2-15.4,17.6-30.1,28.2-44c17.9-23.6,40.7-43.1,67-57.3c7-3.8,14.1-7.5,21.3-10.9c7.2-3.4,14-7.7,20-12.9c1.2-1.1,2.5-2.1,3.9-3
			c1.5-1,3.7-0.7,4.5,0.7c0.6,1.2,0.8,2.5,0.6,3.8c-0.3,1-1,2-1.8,2.7c-3.8,3.9-7.9,7.5-12.4,10.7c-10.3,7-19.1,15.8-26,26
			c-4.2,6-8,12.3-11.5,18.8c-6.3,12.1-12.4,24.2-18.4,36.4c-9.1,18.6-20.2,36.2-33.2,52.4c-10.9,13.4-23.7,25.1-38.2,34.6
			c-7.5,5.1-15.7,9.1-24.3,12c-9.2,3-18.4,5.6-27.7,8.2C648.3,468.8,645.7,469.3,643.1,469.6z M-25.1,854h1617.2v156.6H-25.1V854z"
			/>
	</g>
</g>
<g>
	<defs>
		<rect id="SVGID_3_" y="-122.4" width="1562.9" height="1031.9"/>
	</defs>
	<clipPath id="SVGID_4_">
		<use xlink:href="#SVGID_3_"  style="overflow:visible;"/>
	</clipPath>
	<g class="st2">
		<path class="st3" d="M1214.2,631.8c3.3-2.5,6.5-5,9.7-7.5c19.8-15.9,42.3-28,66.6-35.9c12.3-4,24.8-7.5,37.2-11.3
			c6.6-2,13.2-4.1,19.6-6.6c7.8-2.9,15.3-6.3,21.5-12c0.6-0.5,1.3-1,2-1.4c1.2-0.8,2.8-0.6,3.8,0.4c0.9,1,1.8,2.4,1.7,3.4
			c-0.4,2.1-1,4.2-2,6.1c-4.6,10.4-11.3,19.3-19,27.5c-8.3,8.8-17.7,16.4-27.2,23.9c-11.7,9.3-22.1,19.6-30.3,32.2
			c-4.6,6.8-7.9,14.4-9.8,22.3c-0.8,3.4-1.2,7-1.1,10.5c0.2,6.4,3.4,10,9.8,11.3c7.7,1.8,15.8-0.4,21.6-5.7c4.4-3.8,8.3-8,11.7-12.6
			c4.8-6.6,9.2-13.5,13.3-20.7c5.5-9.7,10.4-19.8,15.5-29.7c8.6-16.5,17.9-32.5,30.1-46.7c22.9-27.1,51.1-49.3,82.9-65.4
			c13.1-6.7,27-11,41.1-15.2c8.2-2.4,16.4-4.7,24.6-7.4c6.3-2,12.8-3.3,19.4-4c7.4-0.9,14.7-2.4,22-3.7c0.8-0.2,1.6-0.4,2.3-0.8
			c1.3-0.6,2.6-1.5,2.1-3c-0.5-1.2-1.4-2.2-2.6-2.8c-1.3-0.4-2.7-0.4-4,0c-6.6,1.1-13.1,2.3-19.6,3.6c-3,0.7-6.2-0.3-8.1-2.7
			c-11.3-12.5-14-26.7-9-42.5c2.7-8.5,7.6-15.7,13.2-22.5c14.2-17.3,31.4-30.5,52.5-38.6c8.8-3.3,17.5-6.7,26.2-10.3
			c5.9-2.4,11.7-5,17.3-7.8c9.9-4.9,16-13.1,20.2-23c2.1-5.4,2.6-11.2,1.3-16.8c-1.2-6.1-2-12.3-3.2-18.5
			c-1.5-8.3,0.1-16.2,3.1-23.9c3.7-9.4,9.3-18,16.6-25.1c13.4-13.4,28.9-24.6,45.9-33.3c8.9-4.4,17.7-9,26.4-13.7
			c15.4-8.5,30-18.6,43.3-30c12.8-10.6,23-23.5,31.4-37.6c1.7-2.8,2.7-6,4.2-8.8c1-1.6,2.2-3,3.7-4.2c1.5-1.2,4.2-0.1,4.7,1.7
			c0.3,1.1,0.5,2.1,0.6,3.2c2.2,17.4,2,34.7-2.2,51.8c-5.5,22.5-17.3,41.6-33.4,58.3c-6.7,6.9-13.7,13.4-20.6,20.1
			c-7.2,6.8-13.6,14.3-19.1,22.5c-1.9,2.7-3.5,5.5-4.9,8.5c-5,10.9-4.9,21.5,2.3,31.7c5.6,8,11,16.3,16.2,24.7
			c5.2,8.4,9,17.4,11.5,26.9c4,14.8,3.3,30.5-2,44.9c-9.7,26.6-27,47.1-51.5,61.8c-3.3,1.9-6.9,3.4-10.6,4.4
			c-19.4,5.5-38.9,10.4-58.9,13.3c-3,0.5-5.9,1.2-8.8,2.1c-0.9,0.5-1.5,1.5-1.5,2.5c0.2,1,1,1.8,2,2.2c3.3,0.4,6.6,0.5,9.8,0.1
			c10.6-1.8,21.2-3.9,31.7-6.2c7.3-1.6,14.5-3.6,21.7-5.4c2.7-0.7,5-0.2,6.7,2c2.2,2.8,4.6,5.5,6.1,8.6c6.7,14.1,8.1,28.6,2.8,43.5
			c-3.6,10.6-9.6,20.3-17.3,28.4c-7.6,7.9-16,15.1-25,21.4c-18.8,13-37.8,25.7-56.6,38.6c-8.6,5.9-17.2,11.9-25.5,18.2
			c-7.7,5.8-14.8,12.3-21.1,19.5c-5.1,5.7-9.4,12.1-12.8,19c-2.7,5.5-3.3,11.4-3.2,17.5c0.1,6.9,7.8,14,16.1,13.1
			c3.3-0.4,6.5-1.2,9.6-2.4c14.2-5.6,27.4-12.9,38.9-23c4.3-3.8,8-8.3,11.9-12.5c1.3-1.4,2.3-3,3.6-4.4c2.7-2.9,6.3-2.3,7.9,1.5
			c0.9,2,1.5,4.1,1.8,6.2c2.5,15.7-1,31.8-9.7,45.3c-6,9.8-13.9,18.4-23.2,25.3c-5.3,3.9-10.8,7.6-16.3,11.2
			c-6.9,4.6-13.8,9-20.6,13.7c-5.9,4.1-10.9,9.3-14.7,15.3c-3.5,5.3-5.5,11.3-6,17.6c-0.7,8.4-2.3,16.7-4.7,24.8
			c-1.3,4.7-3.7,9.1-7,12.8c-3.9,4.2-8.1,8.2-12.2,12.2c-2.6,2.5-6.1,3.8-9.8,3.7c-14.7,0.2-29.3,0.7-44,0.8
			c-28.5,0.2-57,0.2-85.5,0.4c-40.1,0.2-80.2,0.5-120.3,0.8c-39.6,0.3-79.2,0.6-118.7,0.9l-116.2,0.9c-36,0.3-72,0.5-107.9,0.7
			l-129.5,1l-120.4,0.8l-117.7,1c-39.5,0.3-79.1,0.5-118.7,0.8l-120.3,0.9l-116.2,0.9c-36.2,0.3-72.5,0.5-108.7,0.7
			c-44,0.3-88,0.6-132,1c-31.5,0.3-63.1,0.6-94.6,0.9c-3.3,0-6.7-0.1-10-0.5c-1.6-0.2-3.2-0.7-4.7-1.5c-2.8-1.6-3.8-5.2-2.2-8
			c0.4-0.6,0.9-1.2,1.4-1.6c1.1-0.8,2.3-1.5,3.5-2.1c20.9-11.4,38.4-28,50.9-48.1c7.6-12.2,13.7-24.9,19.9-37.7
			c2.1-4.7,3.8-9.6,5.3-14.6C-20.9,717.6,2.8,672.9,32,631c15-21.5,30.6-42.7,48-62.5c16.5-18.7,34.8-35.7,53.6-52.1
			c32.8-28.6,70.3-49.9,110.1-67.4c4.6-2,9.2-3.8,13.8-5.6c17.1-6.7,34.4-13.3,51.4-20.3c19.6-8.1,38.8-17.3,57.7-26.9
			c10-5.1,18.2-12.2,26.5-19.5c15.3-13.6,27.5-29.7,38.6-46.7c10.2-15.5,20.4-31,30.7-46.5c10.2-14.9,22.1-28.6,35.4-40.9
			c3.6-3.4,7.4-6.5,11.5-9.3c13.2-9.5,27.2-17.7,41.9-24.8c17-8,34.4-14.9,52.2-20.8c9.1-3.1,18.3-6.3,27.4-9.3
			c12.8-4.2,25.2-9.8,36.8-16.7c11.4-6.7,20.9-15.1,27.3-26.7c3-5.5,6.4-10.8,9.4-16.3c11.8-21.3,27.4-39.5,45.9-55.3
			s40-26,63.5-32.5c8.3-2.3,16.7-4.1,25.1-5.4c7.6-1.3,15.2-2.9,22.7-4.9c3.8-1,6.4,0.3,8.9,2.7c1.3,1.3,0.9,4.3-0.7,5
			c-1.7,0.8-3.5,1.5-5.4,1.8c-25.4,4.7-46,17.9-64.5,34.9c-8,7.3-13.8,16.2-18.5,25.9c-5.7,11.5-9.9,23.7-12.4,36.3
			c-2.1,11-5.1,21.7-9.1,32.1c-5.4,14.1-13.8,26.5-23.3,38.3c-10.4,12.8-23.3,23.4-38.1,31c-9.8,5.1-19.8,9.8-29.7,14.6
			c-9.6,4.7-19.3,9.3-28.9,14.2c-7.1,3.7-13.6,8.5-19.1,14.2c-1.7,1.7-3.3,3.7-4.9,5.5c-6.8,8.1-9,17.3-6.1,27.5
			c2.2,8.2,3,16.6,2.2,25c-1.3,14.6-7.4,26.6-20.4,34.6c-3,1.9-6.2,3.6-9.3,5.4c-5,2.9-10.1,5.6-15,8.7c-3.2,2.1-6.7,3.7-10.4,4.9
			c-11.6,3.6-22.4,9.5-31.7,17.3c-2.6,2.4-5.1,5-7.4,7.7c-0.7,0.8-1.2,1.9-1.3,2.9c0.1,1,0.6,2,1.3,2.7c0.6,0.5,1.5,0.7,2.2,0.5
			c2.8-1.6,5.5-3.5,8.1-5.6c5.6-4.9,11.8-9,18.5-12.4c1-0.5,2-0.9,3.1-1.3c1.1-0.4,1.4,0.5,1.5,1.2c1.2,19.7-6.9,35.4-21.7,48
			c-6.3,5.3-13.2,9.8-20,14.5c-9,6.2-18.4,12.1-26.6,19.4c-8.3,7.3-15.4,15.7-21.1,25c-2.4,4-4.5,8.2-4.5,13c0,4.2,2.2,7.4,6.4,8.2
			c2.2,0.4,4.4,0.5,6.5,0.2c5.4-0.9,10.7-2.6,15.7-5c27.7-12.2,51.2-32,67.7-57.1c3.4-5,6.6-10,9.7-15.2
			c14.4-24.2,32.9-44.9,54.5-63.1c12-10.1,24.3-19.7,37.9-27.7c1.3-1,2.8-1.7,4.3-2.3c1.3-0.2,2.6,0.1,3.7,1c0.7,1.1,1,2.4,0.7,3.7
			c-0.3,1-0.9,2-1.7,2.7c-1.1,1.2-2.3,2.3-3.6,3.4c-10.8,8.8-18.9,19.8-26.3,31.3c-5.5,8.5-9.5,17.9-11.9,27.7
			c-2.5,10-4.7,20.1-6.9,30.2c-1.9,8.8-4.7,17.3-8.5,25.5c-4.2,8.9-9.9,17-16.8,24.1c-7.1,7.3-15.6,13.1-25,17.2
			c-8.8,3.9-17.7,7.7-26.5,11.7c-3,1.4-5.9,3.1-8.6,4.9c-1.3,0.9-2.4,2.2-3.2,3.6c-0.4,1-0.4,2.1,0.2,3c0.7,0.8,1.7,1.2,2.8,1.1
			c2.9-0.9,5.7-2,8.4-3.3c4.8-2.1,9.5-4.4,14.3-6.5c0.5-0.2,1.1-0.4,1.5-0.2c0.4,0.4,0.5,0.9,0.5,1.4c-4.2,14.3-8.4,28.7-12.6,43
			c-4.9,16.9-15,30.1-29.1,40.6c-7.6,5.9-16,10.8-24.9,14.5c-6.7,2.6-13.5,4.7-20.5,6.3c-21.3,5-42.8,8.7-64.8,8.2
			c-2.5,0.1-4.9,0.5-7.3,1.1c-0.7,0.3-1.2,1-1.3,1.8c0,0.8,0.4,1.5,1,2c0.9,0.7,1.9,1.1,3,1.2c4.4,0.6,8.8,0.8,13.2,0.8
			c16.1-0.5,31.9-2.8,47.6-6c2.7-0.7,5.6,0.2,7.3,2.4c3.1,3.2,4.9,7.3,5.2,11.7c0.5,6-0.7,12-3.5,17.4c-2.9,5.9-6.8,11.2-11.7,15.7
			c-6.5,5.8-13.4,11.4-20.1,17c-4.4,3.7-9,7.2-13.3,11c-5.9,5-10.9,10.9-14.8,17.5c-3.5,6.2-5,12.6-2.3,19.6
			c1.9,4.8,4.8,8.7,9.6,10.7c3.5,1.4,7.3,2.9,11.1,3.1c25.5,1.3,48-5.9,66.9-23.2c6.3-5.8,11-13.1,13.8-21.1
			c3.1-8.7,5.7-17.6,8.5-26.4c2.2-7.3,4.2-14.6,6.8-21.8c6.4-17.9,16.4-33.7,28.9-48.1c22.9-26.3,51.4-45.2,82.9-59.9
			c17.2-5.9,32-16,46.1-27c6.3-4.9,11.8-10.7,17.6-16.1c1.2-1.1,2.2-2.4,3.5-3.5c1.4-0.9,3.3-0.9,4.7,0c1.1,0.8,1.8,2.1,1.6,3.5
			c0,0.5,0,1.1-0.2,1.6c-4,13-7.2,26.2-14.2,38.1c-6.8,11.9-14.8,23-23.8,33.3c-4.8,5.3-9.3,10.8-13.8,16.3
			c-9.3,11.7-13.8,25.1-15.3,39.8c-0.7,7-2,14-3.3,20.9c-3,15.4-10.3,28.6-21.2,39.9c-2.1,2.2-4.3,4.3-6.4,6.4
			c-0.3,0.4-0.5,0.9-0.6,1.4c0.5,0.1,1,0.4,1.5,0.3c2.6-0.8,5.2-1.7,7.8-2.8c12.8-6,24.6-13.7,35.3-22.8
			c21.7-18.7,37-41.6,46.9-68.2c7.8-21.2,15.6-42.4,23.7-63.5c7.5-19.6,15.2-39.1,25.2-57.6c7.6-13.9,16.2-27.2,25.8-39.9
			c14.6-19.2,32.6-35.7,53.3-48.4c8.4-5.2,16.8-10.5,25.6-15.1c6-3,10.4-8.3,12.4-14.5c1.3-3.9,2.3-7.8,3.1-11.8
			c6.4-30.5,20.5-57.2,41.6-80.4c12.5-13.9,27.6-25.3,44.6-33.4c7.7-3.7,15.5-7.2,23.2-10.8c4.7-2.2,9.5-4.4,14.2-6.7
			c9.2-4.5,17.6-10.5,24.7-17.8c5.5-5.4,9.9-11.7,13.1-18.7c1.8-4.3,3.8-8.4,5.6-12.7c7.5-17.9,19-33,33.3-46.2
			c24.4-22.7,54.2-39.1,86.7-47.7c8.5-2.3,17.3-3.6,26.2-3.8c3.8-0.1,7.7-0.7,11.6-1s7.7-0.3,11.6-0.6c4.2-0.3,6.7,2.1,8.9,5.1
			c1.1,1.7,0.7,3.9-1,5c-2.2,1.2-4.4,2.2-6.7,3.1c-6.2,2.4-12.5,4.4-18.5,7.1c-22.2,9.9-42.5,23.6-59.9,40.4
			c-12.2,11.5-21.4,25.8-26.6,41.7c-4,11.9-7.7,23.8-12,35.5c-6.4,16.8-15.3,32.7-26.3,47c-11.9,15.8-27.3,27.7-44.8,36.9
			c-10,5.2-16,12.9-19.1,23.3c-3.1,10.7-4.7,21.8-4.8,32.9c-0.1,6.2,0,12.5-0.1,18.8c-0.1,3.5-0.2,7.1-0.4,10.6
			c-0.3,6.3-2.2,12.3-5.5,17.7c-8.3,14.2-18.6,27-30.8,38.2c-9.3,8.5-19.4,16.3-30,23.2c-4.6,2.9-9.5,5.5-14.3,8.3
			c-1.6,1-3.1,2.2-4.5,3.5c-0.4,0.7-0.4,1.5-0.1,2.2c0.4,0.7,1,1.2,1.8,1.4c1.4,0.1,2.7-0.1,4-0.5c4.3-1.8,8.5-3.9,12.5-6.2
			c12.8-7.7,24.3-17.1,35.4-26.9c1.2-1.1,2.4-2.2,3.6-3.4c1.4-1.3,3.4-2,5.3-1.7c5.6,0.2,11,2.4,15.1,6.2c4.7,4.3,8.2,9.6,10.2,15.6
			c3.5,10,3.8,20.2,2,30.6c-2.3,14.1-7.6,27.2-13.7,40c-9.3,19.6-21.5,37.3-34.8,54.4c-5.7,7.3-11.7,14.5-17.5,21.7
			c-4.6,5.5-9.8,10.4-15.5,14.7c-11.1,9-22.9,17.1-35.3,24.3c-3.1,1.8-6.1,3.7-9.1,5.7c-0.9,0.6-1.8,1.3-2.4,2.2
			c-0.4,0.7-0.5,1.5-0.3,2.2c0.5,0.7,1.2,1.1,2,1.1c1.6-0.1,3.3-0.5,4.8-1.1c3.8-1.6,7.5-3.4,11-5.5c8.6-5.5,17.4-10.7,25.3-17
			c6-4.8,12-5,18.6-3.6c9,1.9,14,8.7,13.5,17.9c-0.5,5.1-2,10.1-4.4,14.7c-5,10.4-11.9,19.6-19.5,28.3c-5.6,6.4-11.4,12.6-17.3,18.7
			c-5.1,5.3-10.5,10.4-15.7,15.8c-2.2,2.4-5.8,4-6.1,7.9c3.5,0.6,6.4-1.3,9.4-2.4c8.3-3,16.1-7.2,23.2-12.5
			c10-7.3,19.8-14.9,29.7-22.3c11.2-8.4,22.7-16.4,35.6-22.3c4-1.8,8.1-3.5,12.3-4.9c2.8-1,5.8-1.7,8.8-2.1
			c5.5-0.5,10.3,0.8,13.7,5.7c2.5,3.7,2.7,3.6,5.3-0.1c5.6-7.8,9.4-16.7,11.1-26c1.8-9.6,3.4-19.3,5.2-28.9
			c3.6-18.7,10.3-36.7,19.8-53.3c3.2-5.7,6.7-11.2,10.3-16.7c15-23.6,35.2-41.8,59.8-55.3c14.2-7.9,28.8-15,43.3-22.4
			c16.7-8.5,33.6-16.7,50.1-25.4c17.8-9.4,34.6-20.6,50.1-33.5c2.7-2.3,5.2-4.8,7.8-7.2c0.2-0.2,0.4-0.5,0.3-0.7
			c-0.2-0.2-0.4-0.3-0.7-0.4c-0.5,0-1.1,0-1.6,0.1c-7.1,1.7-14.3,1.2-21.5,0.9c-0.8,0-1.7-0.1-2.5-0.3c-15.2-2.7-22-13.6-20.7-25.9
			c0.6-5.4,2.1-10.7,4.5-15.6c4.9-10.6,12.6-19.1,21-27.1c9.1-8.4,19-15.9,29.5-22.4c11.4-7.2,23.1-14,34.4-21.3
			c9-5.8,17.9-11.8,26.5-18.2c10.2-7.6,19.3-16.3,26.6-26.7c2.7-3.8,4.8-8,6-12.5c7.1-27.2,21.6-50.4,40.5-71.2
			c14.1-15.4,30.3-28.6,47.7-40.3c17.4-11.7,35.8-21.7,54.2-31.7c16.2-8.8,32.5-17.4,48.4-26.9c17.8-10.5,33.9-23.7,47.5-39.1
			c6.5-7.4,12.2-15.4,16.9-24c1.9-3.5,3.9-7.1,2.7-11.5c-0.7-2.6,1.3-4.6,3.1-6.3c1.5-1.5,4.9-0.6,5.6,1.3c0.4,1,0.7,2.1,0.7,3.1
			c0.2,4.9,0.3,9.8,0.5,14.7c0.2,10.2-1.9,19.9-5.1,29.6c-6,18.5-14.9,35.6-25.5,52c-9.8,14.8-20.8,28.9-32.9,41.9
			c-17.2,18.8-35.8,36.2-54.5,53.6c-7,6.5-13.8,13.3-20.6,20.1c-11.4,11.6-18.4,25.7-22.9,41c-1.8,6.3-3.4,12.6-5,18.9
			c-6,24.3-18.2,45.3-34.5,64.3c-10.3,12.1-22.1,22.9-35,32.3c-4,3-8.5,5.1-13.3,6.4c-13.1,3.3-26.1,7-39.7,8.3
			c-1.6,0.2-3.2,0.8-4.7,1.5c-0.7,0.5-1.1,1.2-1.1,2c0.1,0.8,0.5,1.5,1.2,2c1.3,0.6,2.6,0.9,4,1c6.7,0.6,13.2-1,19.7-2.3
			c5.1-1.1,10.2-2.4,15.3-3.7c2.1-0.6,4.5-0.2,6.3,1.1c11.3,7.8,17.9,18.4,19.3,31.9c1.5,14.4-1,29-7.5,42
			c-6.6,13.6-15.9,25.4-26.5,36.2c-9.3,9.3-19.4,17.8-30.3,25.4c-16.2,11.4-33.2,21.5-51,30.4c-11.8,6-23.6,11.8-35.3,18
			c-15.2,8-29.3,17.4-41.3,29.7c-3.6,3.7-6.9,7.8-10.2,11.8c-0.8,1-1,2.5-1.4,3.7l-0.6,0.4C1213.9,632.4,1214.1,632.1,1214.2,631.8z
			"/>
		<path class="st3" d="M1165.3,307.5c-3,0-6.1-0.1-9.1,0c-1.9-0.1-3.9,0-5.8,0.3c-1.3,0.4-2.4,1.1-3.2,2.1c-0.7,0.9,1,2.8,3,3.3
			c7.5,1.7,15.3,2.2,23,1.4c10.5-0.9,20.8-2.5,31.1-4.7c1.6-0.5,3.3-0.2,4.6,0.8c7.4,5.8,13,12.9,13.1,22.6c-0.1,4.6-0.7,9.2-2,13.6
			c-2.2,8.2-6.6,15.5-11.5,22.5c-8.1,11.6-18.3,21-29.7,29.3c-11.9,8.5-24.3,16.1-37.3,22.8c-15.8,8.4-31.6,16.8-47.3,25.4
			c-4.8,2.6-9.4,5.8-14,8.7c-19.7,12.2-32.8,29.6-41,50.8c-0.9,2.3-1.7,4.6-2.7,6.9c-0.8,1.5-2.4,2.4-4.1,2.1
			c-1.7-0.2-3-1.6-3.1-3.3c0-4.6-0.4-9.3,0.2-13.8c1.3-9.9,2.6-20,4.9-29.7c6.4-27,18.7-50.9,39.4-70.3
			c13.4-12.6,29.6-22.1,47.3-27.7c3.2-1,6.3-2,9.4-3.2c1.6-0.5,3-1.3,4.4-2.3c0.7-0.8,1-1.8,0.9-2.8c0-0.5-1.2-1.3-1.8-1.2
			c-3,0-6,0.3-9,1c-4.8,1.3-9.4,3.2-14.1,4.8c-2.1,0.7-4.1,1.5-6.1,2.4c-2,1-4.4,0.8-6.3-0.4c-12.7-6.7-19.8-16.8-20.6-31.2
			c-0.9-18.2,6.1-33.4,17.9-46.8c10.6-12.1,23.5-21.3,37.5-29.3c13.7-7.8,28.3-13.5,42.9-19.3c7.7-3.1,15.3-6.2,23-9.3
			c9.7-4,18.9-9,27.4-15.1c6.7-4.8,12.7-10.5,17.7-17.1c6-7.8,11.4-16,16.2-24.6c4.4-8.5,9.6-16.6,15.4-24.2
			c11.3-14.4,25.6-25.5,41.3-34.8c12.3-7.2,25.1-13.8,38.9-17.9c1.3-0.5,2.6-0.9,3.9-1.2c2.5-0.3,4.8,1.4,5.1,3.8c0,0,0,0,0,0l0,0
			c0.1,0.6,0,1.3-0.1,1.9c-0.5,1.6-1.3,3-2.2,4.3c-2,2.6-4.1,5.2-6.3,7.6c-16.8,17.7-30.5,38.1-40.5,60.2
			c-3.4,7.7-6.2,15.7-9.2,23.6c-1.3,3.6-2.4,7.2-3.7,10.8c-8.3,23.8-23,44.9-42.4,61.2c-8.7,7.6-17.9,14.6-27.6,20.8
			c-5.1,3.2-10.7,5.7-16.5,7.4C1199.9,304.2,1182.9,307.6,1165.3,307.5z M643.1,471.3c-0.9-0.2-1.5-0.3-2-0.4
			c-1.6-0.4-2.7-2.6-1.7-3.9c0.8-1.1,1.8-2,2.9-2.7c1.4-0.8,3-1.4,4.7-1.6c6.6-0.9,10.9-5,14.8-9.7c7.1-8.7,13.4-17.9,18.9-27.7
			c6.4-11.1,12.3-22.4,18.4-33.7c8.2-15.4,17.6-30.1,28.2-44.1c17.9-23.6,40.7-43.2,67-57.3c7-3.8,14.1-7.5,21.3-10.9
			c7.2-3.4,14-7.7,20-12.9c1.2-1.1,2.5-2.1,3.9-3c1.5-1,3.7-0.7,4.5,0.7c0.6,1.2,0.8,2.5,0.6,3.8c-0.3,1-1,2-1.8,2.7
			c-3.8,3.9-7.9,7.5-12.4,10.7c-10.3,7-19.1,15.8-26,26c-4.2,6.1-8,12.4-11.5,18.8c-6.4,12-12.4,24.2-18.4,36.4
			c-9.1,18.6-20.2,36.2-33.2,52.4c-10.9,13.4-23.7,25.1-38.2,34.6c-7.5,5.1-15.7,9.1-24.3,12c-9.2,2.9-18.5,5.6-27.7,8.2
			C648.4,470.4,645.7,470.9,643.1,471.3z M-25.1,856h1617.2v156.7H-25.1V856z"/>
	</g>
</g>
</svg>
