<?xml version="1.0" encoding="utf-8"?>
<!-- Generator: Adobe Illustrator 23.1.0, SVG Export Plug-In . SVG Version: 6.00 Build 0)  -->
<svg version="1.1" id="Слой_1" xmlns="http://www.w3.org/2000/svg" xmlns:xlink="http://www.w3.org/1999/xlink" x="0px" y="0px"
	 viewBox="0 0 58 88" style="enable-background:new 0 0 58 88;" xml:space="preserve">
<style type="text/css">
	.st0{clip-path:url(#SVGID_2_);}
	.st1{fill:none;stroke:#000000;stroke-width:1.0159;}
</style>
<g>
	<defs>
		<rect id="SVGID_1_" x="0.4" y="0" width="58" height="88"/>
	</defs>
	<clipPath id="SVGID_2_">
		<use xlink:href="#SVGID_1_"  style="overflow:visible;"/>
	</clipPath>
	<g class="st0">
		<path d="M44.7,54.4c-0.1-0.2-0.3-0.1-0.3,0.1c-0.4,1.9,0.1,9.9-3.4,8.9c-2.4-0.7-2.4-7.2,2.4-10.9c6.3-4.8,2.1-16.6,0.5-20.7
			c-0.1-0.4-0.6-0.2-0.6,0.2c0.3,5,1.1,8.4-0.7,11.1c-2,3-4.7-2.7-2.1-4.8c2.6-2,2.4-6.1,0.5-8.8c-1.6-2.3-2-6.2-2-8.6
			c0-0.6-0.8-0.7-0.9-0.1c-0.8,2.8-0.4,5.7-1,8.6c-0.3,1.1-0.7,2.2-1.5,3.1c-0.5,0.6-1.2,1.2-1.9,1.4c-1,0.3-1.7-0.4-1.8-1.4
			c-0.1-1,0.1-2,0.3-2.9c0.3-1.1,0.7-2.1,0.9-3.2c0.4-2.2,0.4-4.6-1.1-6.4c-0.5-0.6-1.2-1.2-1.9-1.5c-5.8-3-3.5-3.4-3.7-9.2
			c0-0.8-1.1-1-1.5-0.3c-3.7,7.9-2.9,10.6-1.2,14.3c2.3,5.1,4.6,11.9,0.5,11.6c-3.7-0.3-2.1-9.8-3.2-13.3c-0.2-0.6-1.1-0.5-1.1,0.1
			c-0.1,2.4-0.5,6.3-2.3,8.6c-2.1,2.7-2.4,6.8,0.6,8.8c2.9,2-0.1,7.7-2.4,4.8c-2.1-2.7-1.2-6.1-0.8-11.1c0-0.4-0.5-0.5-0.7-0.2
			c-1.8,4.1-5.6,14.9,0.6,20.7c1.5,1.4,3.4,2.6,4.6,4.4c0.8,1.2,1.2,2.7,0.8,4.1c-0.4,1.4-2.2,3-3.6,1.8c-1.2-1-1.4-3.1-1.6-4.5
			c-0.2-1.3-0.3-2.6-0.5-3.8c0-0.2-0.2-1.5-0.5-0.8c-0.8,1.9-3.4,9.3,0.3,15.2c0.5,0.8,1.1,1.6,1.6,2.5c1.6,2.4,3.6,4.4,6.2,5.7
			c3.7,1.8,8.2,2.1,12.1,0.9c4.9-1.5,9.3-6.1,11.4-10.6C47.1,63.9,46.5,58.5,44.7,54.4L44.7,54.4z"/>
		<path class="st1" d="M39.3,0.7H18.8c-9.9,0-18,8-18,17.8v50.8c0,9.8,8,17.8,18,17.8h20.5c9.9,0,18-8,18-17.8V18.5
			C57.3,8.6,49.2,0.7,39.3,0.7z"/>
	</g>
</g>
</svg>
