<svg width="68" height="31" viewBox="0 0 68 31" fill="none" xmlns="http://www.w3.org/2000/svg">
<path d="M39.7563 21.757C39.6254 21.6818 39.4936 21.6076 39.3637 21.5303C38.8941 21.2387 38.3925 21.0019 37.8688 20.8246C37.6325 20.7439 37.4007 20.6507 37.1744 20.5454C36.9868 20.4619 36.788 20.4104 36.5922 20.3496C35.8195 20.1147 35.0066 20.0374 34.2215 19.8571C34.1865 19.8489 34.1514 19.8396 34.1154 19.8386C34.0659 19.8365 34.0196 19.8633 34.0051 19.9128C33.9731 20.0235 33.9476 20.136 33.9289 20.2497C33.9237 20.2775 33.9516 20.3218 33.9763 20.3383C34.0721 20.4032 34.1751 20.4516 34.2936 20.4722C34.6831 20.5423 35.0705 20.6175 35.4579 20.6927C35.6258 20.7247 35.7927 20.7587 35.9596 20.7957C36.0204 20.8091 36.0822 20.8256 36.1368 20.8534C36.2656 20.9194 36.4016 20.9544 36.549 20.9657C36.6365 20.973 36.7272 20.9967 36.8065 21.0337C37.2568 21.2501 37.7328 21.4047 38.1985 21.5839C38.3067 21.6251 38.4107 21.6767 38.5107 21.7343C38.966 21.996 39.4194 22.2619 39.8737 22.5277C40.0427 22.6256 40.2107 22.7265 40.3786 22.8254C40.734 23.0336 41.1173 23.1788 41.516 23.286C41.991 23.4137 42.4639 23.5477 42.9399 23.6754C43.2171 23.7496 43.4994 23.8042 43.792 23.8053C44.2216 23.8073 44.6368 23.8794 45.0541 23.9516C45.3632 24.0051 45.6774 24.0443 45.9896 24.0886L47.2188 24.2637C47.3259 24.2792 47.4331 24.2936 47.5402 24.305C47.7772 24.3317 48.0121 24.2977 48.246 24.2133C48.3497 24.173 48.4575 24.144 48.5674 24.1267C48.7498 24.103 48.8848 24.0196 48.9538 23.8331C48.9806 23.7589 49.029 23.7239 49.1001 23.7177C49.4113 23.693 49.7214 23.6682 50.0222 23.7455C50.117 23.7702 50.2149 23.7867 50.3117 23.8053C50.4577 23.837 50.6103 23.8139 50.7403 23.7403C51.0546 23.5621 51.3791 23.5405 51.7068 23.5765C52.3456 23.6487 52.9699 23.7723 53.586 23.932C54.0888 24.0618 54.5854 24.2163 55.0944 24.3214C55.692 24.4451 56.2762 24.6151 56.8665 24.7645C57.4013 24.9005 57.9453 24.952 58.5068 24.9046C58.8993 24.8706 59.2919 24.8469 59.6844 24.8016C60.2325 24.7356 60.7796 24.7212 61.3267 24.6965C62.0304 24.6656 62.7331 24.6099 63.4347 24.4822C63.4883 24.4719 63.546 24.4616 63.5975 24.4688C63.6253 24.4729 63.649 24.512 63.6665 24.5409C63.6707 24.5502 63.6439 24.5934 63.6253 24.5996C63.3121 24.7068 63.0277 24.884 62.7434 25.0602C62.4023 25.2714 62.0603 25.4816 61.7203 25.6948C61.6317 25.7505 61.541 25.8071 61.4627 25.8772C61.397 25.9339 61.3416 26.0015 61.2989 26.0771C61.201 26.2594 61.3082 26.4315 61.5039 26.4119C61.5681 26.4037 61.6307 26.3856 61.6894 26.3583C61.7584 26.3274 61.8233 26.2852 61.8882 26.245C62.3189 25.9792 62.7516 25.7165 63.1802 25.4455C63.5171 25.2333 63.8736 25.0952 64.2497 25.022C64.3218 25.0076 64.3939 24.9891 64.4671 24.9788C65.2079 24.8696 65.8394 24.4945 66.4061 23.9722C66.5345 23.8442 66.6882 23.7445 66.8574 23.6796C66.9682 23.6459 67.0655 23.5781 67.1356 23.4859C67.1976 23.3996 67.2914 23.3414 67.3962 23.3241C67.5178 23.3035 67.6157 23.354 67.6507 23.4714C67.6718 23.5449 67.6778 23.6218 67.6682 23.6976C67.6586 23.7734 67.6338 23.8465 67.5951 23.9124C67.4447 24.1741 67.3087 24.4451 67.1232 24.6872C66.9759 24.8809 66.843 25.0859 66.6977 25.2817C66.4288 25.6474 66.1001 25.9452 65.7374 26.2028C65.3927 26.4436 65.0312 26.6595 64.6556 26.8488C64.4197 26.9693 64.1848 27.095 63.9509 27.2197C63.8239 27.2893 63.7085 27.3783 63.6088 27.4834C63.4863 27.6072 63.3602 27.7275 63.2307 27.844C63.1052 27.963 62.9624 28.0624 62.8073 28.1387C62.731 28.1748 62.661 28.2273 62.5909 28.2778C62.4188 28.4004 62.253 28.5333 62.0778 28.6497C61.8048 28.8311 61.5163 28.9691 61.2041 29.0413C61.0702 29.0722 60.9331 29.1175 60.8064 29.1783C60.6507 29.2613 60.4759 29.3018 60.2995 29.2957C60.1984 29.2888 60.0969 29.3018 60.0007 29.3339C59.3506 29.5667 58.685 29.6574 58.0184 29.7305C57.6527 29.7717 57.2869 29.7841 56.9232 29.816C56.6131 29.8428 56.3019 29.8758 55.9918 29.9098C55.59 29.9541 55.1892 30.0025 54.7874 30.0499C54.7328 30.0561 54.6802 30.0602 54.6339 30.1056C54.47 30.2622 54.2702 30.3044 54.0672 30.3343C53.769 30.3763 53.4674 30.3894 53.1667 30.3734C53.0026 30.3604 52.8374 30.3712 52.6763 30.4054C52.5973 30.4278 52.5147 30.434 52.4332 30.4237C52.3518 30.4135 52.2733 30.3869 52.2024 30.3456C52.1405 30.3075 52.0859 30.3127 52.0231 30.3353C51.953 30.3611 51.8819 30.3848 51.8108 30.4116C51.545 30.5094 51.2751 30.5713 50.999 30.5919C50.8444 30.6042 50.6899 30.63 50.5343 30.6506C50.2767 30.6836 50.0284 30.6691 49.776 30.6238C48.9615 30.4776 48.1451 30.3423 47.327 30.2179C46.4007 30.0788 45.4693 29.9654 44.5451 29.8222C44.0755 29.7443 43.6091 29.6481 43.147 29.5337C42.5288 29.3874 41.9137 29.2247 41.3162 29.0124C40.9633 28.887 40.6126 28.7555 40.2642 28.6178C40.1319 28.5642 40.0053 28.4976 39.8861 28.419C39.5873 28.2253 39.2885 28.0305 39 27.8214C38.7682 27.6545 38.5828 27.4319 38.4076 27.2032C38.3131 27.0822 38.222 26.9585 38.1346 26.8323C37.8028 26.348 37.368 25.9833 36.8828 25.6763C36.5809 25.4847 36.2512 25.3487 35.9246 25.2075C35.7185 25.1199 35.5084 25.0457 35.3013 24.9643C35.1949 24.915 35.0785 24.891 34.9613 24.8943C34.9083 24.8952 34.857 24.9126 34.8144 24.944C34.7717 24.9753 34.7399 25.0192 34.7233 25.0694C34.7045 25.1129 34.7001 25.1612 34.7106 25.2073C34.7212 25.2535 34.7462 25.295 34.782 25.326C34.8541 25.3899 34.9365 25.4476 35.0251 25.4867C35.2446 25.5846 35.4682 25.6722 35.6928 25.7608C36.244 25.9782 36.755 26.2615 37.1991 26.6571C37.2856 26.7344 37.3639 26.822 37.4412 26.9085C37.4711 26.9405 37.4927 26.9807 37.5164 27.0177C37.4639 27.0651 37.4134 27.0404 37.3619 27.025C37.0631 26.9291 36.7437 26.9116 36.4336 26.8642C35.9977 26.7962 35.5619 26.7323 35.1251 26.6654C34.8869 26.6237 34.6533 26.5592 34.4276 26.4727C33.8485 26.2667 33.2674 26.0606 32.6905 25.8463C32.3484 25.7196 32.0105 25.5805 31.6736 25.4383C31.2388 25.2549 30.8071 25.0643 30.3754 24.8747C30.1786 24.7892 29.9839 24.7016 29.7902 24.611C29.4759 24.4626 29.1637 24.3101 28.8495 24.1617C28.5682 24.0299 28.2828 23.9021 28.0005 23.7713C27.7254 23.6445 27.4503 23.5188 27.1783 23.387C26.929 23.2674 26.6848 23.1397 26.4365 23.0181C25.9873 22.8017 25.5402 22.5802 25.0868 22.3731C24.758 22.2139 24.4515 22.0123 24.175 21.7735C23.5072 21.2223 22.8637 20.6424 22.2463 20.0354C22.0742 19.8664 21.8877 19.7139 21.7085 19.5532C21.6971 19.5429 21.692 19.5243 21.6837 19.5099L21.759 19.48C21.7672 19.477 21.7775 19.48 21.7857 19.4821C22.0948 19.5398 22.4019 19.6109 22.6924 19.7263C23.1643 19.9138 23.6238 20.1312 24.0607 20.3898C24.513 20.6577 24.9756 20.907 25.4619 21.1079C25.9667 21.315 26.4963 21.4479 27.0393 21.5355C27.1208 21.5449 27.2033 21.5407 27.2834 21.5231C27.3391 21.5108 27.391 21.4854 27.4349 21.449C27.5534 21.3542 27.5688 21.2017 27.472 21.1007C27.4359 21.0615 27.3911 21.0315 27.3411 21.0131C27.2484 20.9822 27.1516 20.9637 27.0547 20.9431C26.6591 20.8627 26.2645 20.7751 25.8905 20.6288C25.5144 20.4888 25.1493 20.3207 24.7983 20.126C24.5665 19.9942 24.3388 19.853 24.1029 19.7283C23.6393 19.4831 23.1694 19.2493 22.6646 19.0896C22.2278 18.9485 21.7744 18.8653 21.3159 18.8423C21.0717 18.831 20.8265 18.8237 20.5823 18.8134C20.4917 18.8103 20.4 18.8093 20.3103 18.798C20.2135 18.7856 20.1167 18.7712 20.0445 18.6888C19.9807 18.6167 19.89 18.5971 19.7952 18.6321C19.6994 18.6671 19.6128 18.6445 19.5283 18.6197C19.0745 18.4867 18.6281 18.3295 18.191 18.1489C17.7964 17.984 17.4008 17.8223 17.0185 17.6307C16.8985 17.5726 16.7813 17.509 16.6672 17.44C16.4096 17.2793 16.1572 17.1124 15.9048 16.9476C15.6312 16.7774 15.3841 16.5681 15.1712 16.3263C15.0733 16.2109 14.9909 16.079 14.9033 15.9543C14.8776 15.9173 14.8611 15.8719 14.8343 15.8369C14.7972 15.7874 14.7261 15.7473 14.721 15.6937C14.7158 15.6143 14.7519 15.5268 14.7776 15.4443C14.8013 15.3712 14.8353 15.3001 14.8652 15.228C14.9641 14.9931 15.0342 14.752 15.0507 14.5006C15.0579 14.4048 15.0682 14.309 15.0692 14.2142C15.0774 13.7928 15.1444 13.3765 15.232 12.9582C15.3144 12.5585 15.4319 12.1752 15.6019 11.7991C15.9336 11.0645 16.4467 10.5731 17.205 10.3928C17.5914 10.3 17.9695 10.2794 18.3301 10.4299C18.396 10.4577 18.4682 10.468 18.5351 10.4927C18.7742 10.5823 19.0235 10.5978 19.2831 10.5669C19.7138 10.5154 20.1414 10.502 20.5638 10.5597C21.0099 10.6215 21.455 10.6905 21.8795 10.8337C22.0577 10.8925 22.2298 10.9677 22.406 11.0295C22.4891 11.0624 22.5766 11.0833 22.6656 11.0913C22.8346 11.0985 22.9417 10.9265 22.8645 10.773C22.7794 10.6132 22.6408 10.4884 22.473 10.4206C22.153 10.2814 21.8185 10.1784 21.4756 10.1136C21.3087 10.0796 21.1397 10.0517 20.9718 10.0208C20.4342 9.92676 19.8857 9.91253 19.3439 9.97859C19.1111 10.0064 18.8885 9.9992 18.6773 9.91265C18.6443 9.89823 18.6052 9.89823 18.5743 9.88483C18.056 9.66538 17.5162 9.71483 16.966 9.8632C16.9031 9.87968 16.8413 9.90338 16.7774 9.91677C16.7548 9.92089 16.7177 9.91368 16.7331 9.8735C16.7929 9.71895 16.8568 9.56544 16.9825 9.45005C17.067 9.37071 17.1483 9.2852 17.24 9.2172C17.442 9.0678 17.6357 8.90811 17.8129 8.72883C17.8793 8.66016 17.9647 8.61282 18.0581 8.59283C18.2951 8.54029 18.5135 8.43623 18.733 8.31465C18.9297 8.20441 19.1502 8.14362 19.3635 8.07768C19.4397 8.05295 19.5273 8.06635 19.6067 8.07768C19.7313 8.09417 19.856 8.11683 19.9776 8.14774C20.4196 8.26108 20.8636 8.37132 21.3005 8.49805C21.5838 8.58047 21.861 8.68041 22.135 8.78653C22.8748 9.07398 23.6166 9.35629 24.3759 9.59326C24.6397 9.67568 24.9086 9.7478 25.1744 9.82508C25.5433 9.93429 25.8977 10.0806 26.2408 10.2527C26.6859 10.4773 27.1268 10.707 27.5534 10.9677C28.0098 11.2459 28.3725 11.623 28.6661 12.0763C28.8196 12.3112 28.969 12.5502 29.1297 12.7769C29.445 13.222 29.8231 13.6032 30.2198 13.9638C30.3115 14.0462 30.4217 14.1101 30.5279 14.175C30.6051 14.2224 30.6927 14.2389 30.7885 14.2203C30.9462 14.1905 31.0482 14.0091 30.9719 13.87C30.9239 13.7838 30.8582 13.7087 30.7793 13.6496C30.5351 13.4672 30.3249 13.2477 30.1116 13.0314C29.8544 12.7667 29.6232 12.478 29.4213 12.169C29.397 12.1309 29.3756 12.0909 29.3574 12.0495C29.3533 12.0423 29.3708 12.0124 29.378 12.0124C29.4502 12.0124 29.5223 12.0124 29.5944 12.0186C30.0951 12.0691 30.5885 12.1752 31.0657 12.3349C31.3109 12.4153 31.554 12.5059 31.7766 12.6388C32.0826 12.8212 32.3948 12.9943 32.6936 13.187C32.9336 13.3394 33.1562 13.5208 33.3921 13.6784C33.7836 13.9422 34.1648 14.2203 34.58 14.448C34.6027 14.4604 34.6254 14.4779 34.6511 14.4841C34.8974 14.548 35.1004 14.6974 35.3208 14.8117C35.4785 14.8942 35.6402 14.9683 35.7989 15.0497C36.0997 15.2053 36.3913 15.3733 36.6674 15.5721C37.1156 15.8946 37.5442 16.2428 37.9708 16.5952C38.3623 16.9187 38.7517 17.2463 39.1587 17.5493C39.509 17.8099 39.8758 18.0459 40.2436 18.2808C41.0267 18.7784 41.7633 19.3358 42.4011 20.023C42.774 20.4248 43.1862 20.7803 43.6045 21.1285C43.7817 21.2759 43.9743 21.4067 44.165 21.5365C44.4019 21.6962 44.6389 21.8559 44.8851 21.9981C45.1551 22.1526 45.4312 22.2969 45.7135 22.4288C46.4399 22.7708 47.1147 23.2046 47.8225 23.5827C47.8534 23.5992 47.8843 23.6177 47.9132 23.6383C47.9266 23.6487 47.9348 23.6662 47.9462 23.6796C47.9225 23.694 47.8977 23.7187 47.874 23.7187C47.7483 23.7197 47.6185 23.727 47.4949 23.7105C47.1734 23.6672 46.8551 23.6126 46.5347 23.5621C46.4553 23.5497 46.376 23.5291 46.2946 23.525C45.833 23.4972 45.3828 23.4127 44.9315 23.3303C44.6034 23.2668 44.2704 23.2323 43.9362 23.2273C43.6833 23.2257 43.4315 23.1918 43.1872 23.1263C42.6082 22.9717 42.0312 22.811 41.4553 22.6472C41.1973 22.5738 40.9495 22.4686 40.7176 22.334L39.746 21.7735C39.7501 21.7694 39.7532 21.7632 39.7563 21.757Z" fill="black"/>
<path d="M7.80454 8.10135C7.94466 8.16317 8.12806 8.2559 8.31969 8.32596C8.6123 8.43414 8.90903 8.53202 9.20781 8.62474C9.49939 8.71541 9.80333 8.7525 10.1145 8.74838C10.2598 8.74838 10.4061 8.74529 10.5513 8.73602C10.9946 8.70409 11.4402 8.73146 11.8763 8.81741C11.9299 8.82771 11.9845 8.83183 12.036 8.84626C12.1184 8.86893 12.1957 8.84832 12.274 8.80505C12.4162 8.72777 12.5604 8.65771 12.7036 8.58353C12.8201 8.52295 12.9477 8.48683 13.0787 8.47741C13.2971 8.46196 13.5165 8.44135 13.735 8.4362C13.9544 8.43105 14.1687 8.40632 14.3871 8.34141C14.6272 8.26929 14.8745 8.23117 15.1187 8.18274C15.301 8.14565 15.4782 8.09002 15.6524 8.0148C16.0219 7.85914 16.4113 7.7558 16.8094 7.70777C17.0845 7.67068 17.3544 7.70777 17.6192 7.75929C17.7377 7.78196 17.7665 7.87674 17.7016 7.99626C17.6131 8.15902 17.4839 8.29604 17.3266 8.39396C16.9485 8.63093 16.6394 8.95032 16.3561 9.29856C16.2873 9.38105 16.2326 9.47435 16.1943 9.57468C16.1123 9.78388 15.9858 9.97268 15.8234 10.128C15.7358 10.2186 15.6462 10.3083 15.5617 10.402C15.4934 10.4826 15.4092 10.5482 15.3144 10.5947C15.1764 10.6586 15.0981 10.7647 15.0599 10.9244C15.0115 11.1201 14.9456 11.3159 14.859 11.5014C14.6839 11.8764 14.587 12.2689 14.5201 12.6697C14.4768 12.9263 14.4428 13.1838 14.3985 13.4394C14.3053 14.013 14.1633 14.5776 13.974 15.127C13.9328 15.2444 13.8741 15.3598 13.8091 15.469C13.6804 15.6854 13.3785 15.7431 13.2157 15.5783C13.142 15.4994 13.0787 15.4114 13.0271 15.3166C12.9859 15.2445 12.9557 15.1667 12.9375 15.0858C12.8654 14.7695 12.7088 14.5078 12.5223 14.2615C12.3544 14.038 12.2081 13.7979 12.0381 13.5753C11.8402 13.3188 11.627 13.0767 11.423 12.8263C11.2236 12.5831 11.0258 12.3385 10.8295 12.0927C10.7237 11.9641 10.6581 11.8071 10.641 11.6415C10.6348 11.5797 10.6049 11.5384 10.5482 11.5189C10.0959 11.3555 9.65255 11.168 9.22018 10.9573C8.71224 10.7204 8.21048 10.47 7.72624 10.1877C7.39654 9.99608 7.08848 9.76632 6.77527 9.5479C6.44007 9.31185 6.11909 9.05623 5.81399 8.78238C5.37883 8.39347 4.98865 7.95699 4.65078 7.48111C4.48284 7.2462 4.32109 7.00614 4.17066 6.75886C3.78339 6.11313 3.55001 5.38689 3.4886 4.63644C3.43215 4.1228 3.45298 3.6036 3.55042 3.09614C3.60709 2.82208 3.66993 2.54802 3.73793 2.27602C3.76236 2.19417 3.76765 2.10781 3.75339 2.02359C3.70239 1.74633 3.75599 1.46001 3.90381 1.21996C4.00169 1.05099 4.11193 0.888199 4.23351 0.736744C4.39733 0.532744 4.62399 0.489472 4.82593 0.610017C4.89393 0.651229 4.95987 0.702744 5.0083 0.764563C5.1546 0.945896 5.29884 1.13135 5.43072 1.32505C5.61824 1.60014 5.61721 1.91541 5.41218 2.20081C5.32623 2.32994 5.25862 2.47037 5.21127 2.61808C5.1783 2.70874 5.15975 2.80456 5.13193 2.89832C5.08557 3.06008 5.05981 3.20947 5.16696 3.35474C5.21539 3.41965 5.21436 3.53093 5.2226 3.62365C5.22981 3.70711 5.22054 3.79468 5.21848 3.88123C5.20053 4.49105 5.32802 5.09639 5.59042 5.64717C5.71509 5.91093 5.85109 6.16953 5.99636 6.42196C6.25703 6.87529 6.60218 7.25135 7.01533 7.55426C7.25951 7.73353 7.51193 7.89941 7.80454 8.10135Z" fill="black"/>
</svg>
