<svg width="70" height="48" viewBox="0 0 70 48" fill="none" xmlns="http://www.w3.org/2000/svg">
<g clip-path="url(#clip0_14_573)">
<path d="M41.5951 0.0391366C40.9344 0.0299787 40.4255 0.13261 39.9615 0.351137C38.6744 0.957768 38.5135 2.16914 38.9787 3.06187C39.0158 3.13261 39.057 3.20429 39.1093 3.26398C39.4047 3.59808 39.6288 3.97987 39.8616 4.35598C40.2872 5.04219 40.7649 5.68766 41.3569 6.24535C42.06 6.90787 42.8735 7.35314 43.8445 7.49366C44.0492 7.52335 44.2376 7.5925 44.3934 7.73019C44.4311 7.76303 44.4553 7.81545 44.4735 7.86408C44.4994 7.93356 44.4011 8.04156 44.3353 8.01787C44.2719 7.99572 44.211 7.96736 44.1533 7.93324C44.0377 7.86426 43.9094 7.81864 43.7759 7.79903C42.5306 7.60103 41.5472 6.95714 40.7208 6.04324C40.2955 5.57271 39.9325 5.05893 39.5963 4.52493C39.5318 4.42293 39.4529 4.32566 39.4104 4.21514C39.2744 3.86019 38.9781 3.86019 38.6786 3.88766C38.5962 3.89493 38.5071 3.96472 38.4461 4.02914C38.3417 4.1384 38.2954 4.28114 38.2887 4.4324C38.2686 4.87608 38.2926 5.31282 38.464 5.73282C38.6796 6.25956 38.988 6.72661 39.3721 7.14661C39.7997 7.61398 40.2764 8.02924 40.7882 8.40345C40.9284 8.5064 41.0791 8.6005 41.2359 8.67629C41.8907 8.99303 42.5463 9.30914 43.2098 9.60819C43.4409 9.7124 43.6916 9.78092 43.9387 9.84282C44.379 9.95335 44.7379 9.80271 45.0116 9.45724C45.1527 9.27882 45.2705 9.08208 45.3992 8.89387C45.6478 8.5265 45.957 8.20306 46.314 7.93703C46.7923 7.58082 47.3348 7.39482 47.9239 7.34271C48.1118 7.32818 48.3008 7.3388 48.4858 7.37429C48.7189 7.41756 48.8779 7.32629 49.0149 7.16082C49.0235 7.15071 49.0325 7.14061 49.0398 7.12924C49.4271 6.55008 49.8148 5.97124 50.2001 5.3905C50.2516 5.31282 50.2899 5.22629 50.3311 5.14229C50.3595 5.08387 50.3346 5.03619 50.279 5.01282C49.9808 4.8865 49.6692 4.9105 49.3614 4.95187C49.0663 4.99135 48.7825 5.08071 48.505 5.18871C48.2026 5.3065 47.8907 5.38071 47.5679 5.43093C47.153 5.49826 46.7281 5.4717 46.3251 5.35324C45.7699 5.18903 45.2268 4.98377 44.6788 4.79398C44.6287 4.77661 44.5818 4.74724 44.5358 4.71977C44.4729 4.68219 44.441 4.59724 44.4707 4.54987C44.4878 4.52075 44.5143 4.4981 44.5459 4.48546C44.5775 4.47283 44.6125 4.47094 44.6453 4.48008C44.7631 4.50724 44.8794 4.54356 44.994 4.58272C45.3516 4.70493 45.7095 4.82493 46.0636 4.95535C46.8057 5.22819 47.541 5.21271 48.2808 4.93987C48.5705 4.83314 48.8706 4.75072 49.1711 4.67682C49.5711 4.57829 49.9738 4.57956 50.3716 4.70619C50.4799 4.74093 50.5089 4.71124 50.5389 4.60198C50.6421 4.22871 50.5785 3.85829 50.5179 3.48945C50.491 3.32745 50.3921 3.19261 50.2742 3.08019C49.7324 2.56703 49.1513 2.11861 48.3923 1.95629C47.9309 1.85777 47.4727 1.74377 47.0129 1.63545C46.4863 1.51474 45.9755 1.33461 45.4905 1.09861C45.2248 0.967873 44.9541 0.84661 44.6843 0.723768C43.9279 0.378294 43.1239 0.211558 42.3036 0.107979C42.0229 0.0732419 41.7403 0.0530313 41.5951 0.0391366ZM60.0406 14.6441C60.0144 14.2418 59.9863 13.9355 59.9767 13.6291C59.9694 13.4027 59.9688 13.1731 59.9972 12.9489C60.0534 12.5037 59.9435 12.102 59.7181 11.723C59.5939 11.514 59.4448 11.322 59.2599 11.1641C58.5383 10.5489 57.9664 9.80082 57.3639 9.07987C56.8987 8.52377 56.4475 7.95598 55.9721 7.4084C55.2109 6.5305 54.3443 5.76756 53.3452 5.16061C53.0821 5.00082 52.7976 4.87293 52.5179 4.74061C52.2315 4.60545 51.9215 4.58208 51.6086 4.57293C51.5002 4.56805 51.392 4.5859 51.2911 4.6253C51.1901 4.6647 51.0988 4.72477 51.023 4.80156C50.8796 4.94208 50.7391 5.09019 50.6242 5.25314C50.4607 5.48246 50.3125 5.72213 50.1807 5.97061C49.9771 6.36264 49.7485 6.74151 49.4964 7.10493C49.3087 7.37335 49.1704 7.65756 49.2164 7.99956C49.2234 8.05166 49.2148 8.10661 49.2075 8.15935C49.09 9.01671 49.2614 9.83398 49.5596 10.6329C49.6682 10.9235 49.8349 11.184 50.0217 11.4303C50.6826 12.3019 51.456 13.0661 52.3174 13.7412C52.8596 14.1657 53.4704 14.4849 54.0866 14.7922C54.436 14.9668 54.7834 15.1459 55.1292 15.3271C55.3444 15.4402 55.5465 15.5725 55.7186 15.7478C55.7617 15.792 55.8367 15.8431 55.8878 15.8346C56.0433 15.81 56.1809 15.8788 56.3259 15.8883C56.567 15.9044 56.8125 15.9104 57.052 15.8832C57.2914 15.8561 57.5309 15.8075 57.7599 15.7184C57.8713 15.6748 57.9949 15.6622 58.1127 15.6338C58.1651 15.6211 58.1842 15.5476 58.1446 15.5059C58.0798 15.4377 58.0179 15.3653 57.9441 15.3079C57.7528 15.1594 57.5635 15.0072 57.3607 14.8752C56.8866 14.5673 56.4041 14.2715 55.9258 13.9689C55.1509 13.4791 54.3919 12.9679 53.6949 12.371C52.9047 11.6983 52.219 10.9141 51.66 10.0437C51.3091 9.49735 51.0495 8.91692 50.9151 8.27903C50.8183 7.82114 50.7216 7.36419 50.6951 6.89587C50.6883 6.80309 50.6942 6.70983 50.7126 6.61861C50.7219 6.57756 50.779 6.52419 50.8196 6.51945C50.8576 6.51503 50.9301 6.55924 50.94 6.59524C50.976 6.72314 51.0048 6.85577 51.0131 6.98777C51.0473 7.51103 51.1635 8.01882 51.2941 8.52345C51.4365 9.07292 51.7082 9.56556 52.0243 10.0361C52.7047 11.0482 53.5553 11.9008 54.5298 12.6369C55.261 13.1896 56.0398 13.6718 56.8182 14.1552C57.183 14.3849 57.5423 14.6229 57.8959 14.8689C58.1861 15.0691 58.4464 15.3031 58.6252 15.611C58.6865 15.7165 58.7727 15.7588 58.8895 15.761C58.9841 15.7629 59.0789 15.7752 59.1731 15.7721C59.5422 15.7594 59.8493 15.5365 59.9512 15.1797C60.0077 14.9769 60.0218 14.7619 60.0406 14.6441ZM29.5307 5.80008C29.5275 5.83924 29.5115 5.88219 29.523 5.91692C29.608 6.16987 29.6884 6.42535 29.79 6.67229C29.9228 6.99582 30.1297 7.28445 30.3944 7.51545C30.4656 7.57735 30.5359 7.64019 30.6029 7.70619C31.1547 8.24556 31.8364 8.5004 32.5889 8.6185C33.2346 8.71956 33.8834 8.71892 34.5296 8.67535C35.136 8.63492 35.7305 8.49977 36.3158 8.33556C36.3931 8.31408 36.4662 8.27587 36.5428 8.25029C36.7325 8.18682 36.8525 8.06082 36.9499 7.88587C37.3382 7.18735 37.6048 6.45061 37.6939 5.6564C37.7102 5.51177 37.7143 5.35956 37.6881 5.21745C37.6246 4.87387 37.6339 4.52808 37.6198 4.18261C37.6195 4.17819 37.5725 4.16493 37.5563 4.17314C37.2667 4.31777 36.9713 4.44629 36.6584 4.53693C36.1619 4.68061 35.6513 4.72514 35.1401 4.76429C34.3866 4.82303 33.6315 4.86535 32.8782 4.92882C32.6241 4.95029 32.3744 5.01787 32.1208 5.05545C31.9896 5.07472 31.8552 5.0785 31.7217 5.08198C31.6751 5.08324 31.6467 4.98535 31.6834 4.95345C31.7335 4.9105 31.7827 4.85714 31.8421 4.83661C32.0072 4.77977 32.1745 4.71819 32.3463 4.69293C32.9878 4.60092 33.6336 4.54084 34.2812 4.51293C34.9952 4.4804 35.7126 4.44472 36.4122 4.28019C36.8618 4.1744 37.2874 4.00577 37.6552 3.71808C37.858 3.55956 38.0454 3.38682 38.1419 3.13987C38.1562 3.10261 38.1709 3.06156 38.1977 3.03345C38.4078 2.8105 38.389 2.54019 38.344 2.27556C38.3059 2.05167 38.2473 1.8317 38.1687 1.6184C38.0483 1.2925 37.8982 0.977663 37.7699 0.65461C37.6862 0.444294 37.5575 0.353663 37.3139 0.346716C36.4732 0.322716 35.6395 0.369452 34.8122 0.515663C33.8281 0.689347 32.8543 0.908821 31.9095 1.23661C31.6042 1.34272 31.3057 1.46872 31.002 1.58114C30.941 1.60387 30.8727 1.6105 30.8073 1.61745C30.7654 1.62187 30.7179 1.52808 30.7437 1.49272C30.7747 1.45135 30.8053 1.40177 30.8491 1.37903C31.0512 1.27229 31.2514 1.15987 31.4634 1.07461C32.0519 0.837137 32.6637 0.669452 33.2793 0.517558C33.5535 0.450294 33.8304 0.395031 34.1056 0.332821C34.1286 0.327768 34.1494 0.313242 34.1707 0.302821C34.1452 0.295558 34.1197 0.287347 34.0941 0.281347C34.0808 0.278777 34.0671 0.278139 34.0536 0.279452C33.1768 0.343558 32.3057 0.442084 31.465 0.714294C30.9647 0.87661 30.4694 1.0525 29.9953 1.28272C29.5569 1.49619 29.1399 1.74219 28.7692 2.05798C28.5163 2.27303 28.2398 2.42272 27.9029 2.45714C27.7963 2.46819 27.689 2.49345 27.5868 2.52693C27.25 2.63682 27.1299 2.97471 27.3301 3.26714C27.4128 3.38714 27.5178 3.49577 27.627 3.59366C27.8173 3.76419 28.0169 3.92429 28.2158 4.08472C28.531 4.33956 28.8231 4.61461 29.0524 4.95187C29.1188 5.04977 29.2053 5.14198 29.3021 5.21082C30.0173 5.71703 30.7571 6.18029 31.5899 6.4844C32.1266 6.68082 32.6825 6.77808 33.2467 6.84219C33.5283 6.87408 33.8119 6.8924 34.0951 6.90724C34.6641 6.93692 35.2279 6.88608 35.7905 6.8024C35.963 6.7765 36.1383 6.76735 36.3129 6.7585C36.3407 6.75724 36.3876 6.7964 36.395 6.82482C36.4023 6.85419 36.3812 6.90345 36.356 6.92493C36.3148 6.95928 36.2667 6.98458 36.2149 6.99914C36.0591 7.04177 35.9033 7.09198 35.7439 7.11282C35.182 7.1864 34.6203 7.27166 34.0504 7.19935C33.9297 7.18387 33.8077 7.1785 33.686 7.17598C32.4146 7.14629 31.2389 6.79703 30.1552 6.14114C29.9937 6.04356 29.835 5.94156 29.6718 5.84745C29.6287 5.82282 29.5728 5.81998 29.5227 5.80735L29.5307 5.80008ZM28.394 10.3806C28.2822 10.3484 28.2209 10.4365 28.1465 10.4867C27.7548 10.752 27.3457 10.9857 26.8895 11.1243C26.6452 11.1985 26.3946 11.2547 26.1442 11.3059C26.0401 11.327 25.9271 11.328 25.8214 11.3138C25.2703 11.2411 24.7166 11.2446 24.1623 11.2377C23.9197 11.2345 23.6773 11.208 23.4353 11.1871C23.3824 11.1822 23.3314 11.1647 23.2868 11.136C23.2714 11.1242 23.2587 11.1093 23.2497 11.0922C23.2407 11.0752 23.2355 11.0564 23.2345 11.0371C23.2351 11.004 23.2626 10.9563 23.2913 10.9427C23.35 10.9149 23.4184 10.889 23.4819 10.8909C24.1164 10.9115 24.7505 10.9377 25.3849 10.9626C25.466 10.9658 25.5491 10.9632 25.627 10.9809C25.9562 11.0536 26.2729 10.9857 26.5858 10.8982C26.9632 10.7923 27.3238 10.6348 27.6571 10.4302C28.1437 10.1337 28.5722 9.76798 28.9707 9.36566C29.0866 9.24882 29.1792 9.12124 29.1974 8.95135C29.2682 8.27903 29.2446 7.61682 28.9895 6.97829C28.9464 6.86998 28.9106 6.84882 28.8091 6.90093C28.2328 7.19398 27.6545 7.48356 27.0849 7.78893C26.3358 8.18923 25.6106 8.63186 24.913 9.11461C24.8019 9.18969 24.6856 9.25701 24.565 9.31608C24.5407 9.32871 24.4813 9.30756 24.4609 9.28324C24.4414 9.25956 24.4353 9.2024 24.4513 9.17619C24.4848 9.11998 24.5302 9.06661 24.5819 9.02587C24.8035 8.85124 25.02 8.6684 25.2556 8.51335C26.2467 7.86061 27.2905 7.29914 28.3538 6.77082C28.4262 6.73514 28.5006 6.70261 28.5728 6.66661C28.8401 6.53556 28.8401 6.53524 28.7261 6.28008C28.583 5.96114 28.4068 5.66114 28.1877 5.38735C28.0118 5.16693 27.8355 4.94682 27.6494 4.73524C27.4703 4.53156 27.3148 4.31619 27.2164 4.06261C27.1967 4.01284 27.1737 3.96441 27.1475 3.91766C27.1005 3.83177 27.0421 3.80145 26.9482 3.83335C26.719 3.91198 26.4865 3.98556 26.2659 4.08408C25.612 4.37619 24.9948 4.73461 24.3967 5.12619C23.6637 5.60623 22.9787 6.15429 22.351 6.76293C22.2261 6.88356 22.0895 6.99345 21.9531 7.10177C21.9311 7.11914 21.8688 7.11503 21.8468 7.09608C21.8232 7.07587 21.8053 7.01556 21.819 6.99187C21.8716 6.89932 21.9327 6.81179 22.0016 6.7304C22.3816 6.29271 22.8082 5.90303 23.268 5.54935C24.0462 4.94883 24.8803 4.42278 25.7592 3.97829C26.0842 3.81408 26.4169 3.66787 26.7665 3.56082C26.8911 3.52293 26.9064 3.4724 26.8282 3.36408C26.6446 3.11019 26.4278 2.8964 26.1244 2.78082C26.0152 2.73914 25.9245 2.72808 25.8217 2.79914C25.255 3.19198 24.6244 3.47145 24.0123 3.78219C23.3277 4.13207 22.6766 4.54248 22.0668 5.0084C21.8535 5.17071 21.6613 5.36208 21.4707 5.55093C20.888 6.12952 20.3923 6.78781 19.9987 7.50566C19.751 7.95238 19.6019 8.44597 19.5613 8.95387C19.5332 9.29871 19.3751 9.52861 19.0839 9.69124C18.9664 9.75692 18.8502 9.82545 18.7349 9.89493C18.5816 9.98713 18.4571 10.1075 18.3786 10.2691C18.2493 10.5341 18.3744 10.7583 18.6682 10.7836C18.762 10.7915 18.8572 10.7889 18.952 10.7877C20.0779 10.7706 21.1447 11.045 22.1856 11.4372C22.7801 11.6615 23.3389 11.9592 23.897 12.2599C24.0388 12.3363 24.1863 12.4039 24.3344 12.4677C24.5276 12.5507 24.7278 12.564 24.928 12.4948C25.1956 12.4026 25.467 12.3189 25.7256 12.2059C26.0216 12.0764 26.3058 11.9207 26.5941 11.7739C27.2369 11.4461 27.7883 10.9958 28.3087 10.5063C28.3451 10.4725 28.3627 10.4191 28.3886 10.3749L28.3943 10.3806H28.394ZM57.2771 47.7009C57.4393 47.7009 57.6015 47.7031 57.7634 47.7006C58.5785 47.688 59.2871 47.4076 59.9151 46.8953C60.3303 46.5536 60.7608 46.2307 61.2054 45.9274C61.8897 45.4654 62.6633 45.2416 63.4865 45.1894C64.0947 45.1509 64.7004 45.2002 65.3068 45.2498C66.0073 45.3076 66.7107 45.3098 67.4129 45.2791C67.6706 45.2681 67.9199 45.2093 68.1492 45.0818C68.2431 45.0297 68.3449 44.9921 68.4423 44.9457C68.798 44.7754 69.1649 44.7435 69.5445 44.8547C69.5828 44.8661 69.6234 44.8743 69.663 44.8752C69.6872 44.8759 69.73 44.8623 69.7323 44.8497C69.7387 44.8152 69.7402 44.7679 69.7205 44.7436C69.6706 44.6805 69.6129 44.624 69.5487 44.5752C69.397 44.4644 69.2453 44.351 69.0819 44.2591C68.9672 44.1944 68.8373 44.1353 68.6971 44.2058C68.4021 44.1827 68.1058 44.1675 67.8114 44.1353C67.1945 44.0678 66.5786 43.9891 65.962 43.9193C64.6995 43.7766 63.4482 43.5818 62.2387 43.1794C61.7374 43.0127 61.2661 42.7831 60.8079 42.5248C60.0521 42.0988 59.2459 41.8007 58.4093 41.5746C57.9965 41.4631 57.5756 41.4679 57.1625 41.5301C56.7362 41.5942 56.3208 41.7173 55.9328 41.9163C55.3674 42.2062 54.9009 42.5984 54.5979 43.1614C54.4767 43.3851 54.3592 43.6106 54.2453 43.8379C54.072 44.1852 53.8944 44.5307 53.7364 44.8844C53.6318 45.1157 53.5455 45.3546 53.4781 45.599C53.3389 46.1157 53.5228 46.548 53.8925 46.9067C53.9944 47.0055 54.1406 47.0678 54.276 47.1237C54.6627 47.2822 55.0599 47.4085 55.4711 47.4938C56.0676 47.6169 56.664 47.7268 57.2771 47.7009ZM15.0841 17.3292C15.1115 17.8449 15.1256 18.2463 15.2453 18.6328C15.2932 18.7863 15.2769 18.9161 15.1878 19.0487C15.0832 19.2045 14.9854 19.3647 14.8947 19.5287C14.7957 19.7071 14.743 19.8991 14.76 20.1063C14.7778 20.3254 14.8727 20.4477 15.0853 20.5137C15.2839 20.5756 15.4854 20.5594 15.6869 20.532C15.981 20.4919 16.275 20.4508 16.5688 20.411C16.8162 20.3779 17.0375 20.2879 17.2227 20.1196C17.4015 19.9566 17.5755 19.7877 17.7588 19.6298C17.9823 19.4365 18.2052 19.2404 18.4437 19.0661C19.0159 18.6473 19.6596 18.4339 20.3758 18.4629C20.6746 18.4756 20.9703 18.456 21.2634 18.402C21.7989 18.3034 22.2686 18.0925 22.5777 17.6204C22.9777 17.0087 23.2444 16.3405 23.4337 15.6398C23.4401 15.6167 23.4267 15.5886 23.4222 15.563C23.3941 15.5744 23.3526 15.5782 23.3405 15.5987C22.927 16.2953 22.29 16.7406 21.5875 17.1031C21.0479 17.3817 20.5147 17.6687 20.0089 18.0031C19.9522 18.0389 19.8931 18.0709 19.832 18.0988C19.7659 18.1304 19.68 18.1115 19.6532 18.0622C19.6149 17.9927 19.6385 17.927 19.6899 17.8809C19.7899 17.7925 19.8908 17.7 20.0051 17.6315C20.363 17.4173 20.7267 17.2115 21.0901 17.0062C21.2187 16.9332 21.3583 16.8777 21.4847 16.8016C21.7497 16.6415 22.0211 16.4883 22.2686 16.3045C23.1179 15.6739 23.4886 14.8013 23.5407 13.775C23.5471 13.6516 23.5186 13.5382 23.4599 13.4289C23.3325 13.1911 23.1846 12.9663 22.9848 12.7838C22.7964 12.612 22.5946 12.4541 22.3941 12.2959C22.357 12.2665 22.2983 12.2643 22.2497 12.2491C22.2408 12.3003 22.2284 12.3515 22.2242 12.4032C22.2204 12.443 22.2274 12.4831 22.2287 12.5232C22.244 12.9224 22.1329 13.2875 21.934 13.6317C21.7299 13.9835 21.4668 14.2847 21.1644 14.5563C20.7545 14.9248 20.3585 15.3072 19.9977 15.7253C19.4396 16.3715 19.006 17.0908 18.6573 17.8645C18.6069 17.9725 18.5477 18.0762 18.4801 18.1746C18.4641 18.1986 18.3971 18.216 18.3738 18.2024C18.3304 18.175 18.2969 18.1348 18.278 18.0875C18.2652 18.0556 18.2805 18.0079 18.294 17.9716C18.361 17.7966 18.4217 17.6188 18.5021 17.4505C18.9412 16.5372 19.5143 15.7152 20.2417 15.0025C20.5393 14.7107 20.8429 14.4252 21.1443 14.1372C21.3892 13.9058 21.5902 13.6328 21.7379 13.3313C21.9343 12.9284 21.9672 12.5131 21.8331 12.084C21.8024 11.9867 21.7523 11.9172 21.6581 11.8787C21.3471 11.7502 21.0355 11.6232 20.7254 11.4925C20.5878 11.4344 20.5016 11.4938 20.4119 11.5926C19.5667 12.5166 18.8906 13.5791 18.414 14.7325C18.1531 15.3628 17.8999 15.9963 17.71 16.6525C17.6821 16.7411 17.6426 16.8257 17.5925 16.9042C17.5771 16.9294 17.519 16.9465 17.4861 16.9396C17.4673 16.9339 17.45 16.9243 17.4353 16.9114C17.4206 16.8985 17.409 16.8825 17.4012 16.8647C17.3838 16.8146 17.3792 16.761 17.3878 16.7087C17.4095 16.5909 17.4347 16.4722 17.4724 16.3582C17.8466 15.2261 18.2799 14.1189 18.8958 13.0898C19.1457 12.6766 19.4262 12.2825 19.7353 11.9106C19.8633 11.7552 19.9942 11.6021 20.1232 11.4473C20.1698 11.3918 20.1609 11.3507 20.0961 11.3315C19.7206 11.219 19.3358 11.1505 18.9482 11.0965C18.7834 11.0735 18.6589 11.1331 18.5577 11.2563C18.4044 11.4426 18.2448 11.6245 18.0963 11.8149C17.3923 12.7171 16.9277 13.7349 16.6371 14.832C16.4899 15.3868 16.3689 15.9486 16.2338 16.5066C16.2089 16.6096 16.1796 16.7122 16.1425 16.8117C16.1382 16.8243 16.1312 16.836 16.1222 16.846C16.1131 16.8559 16.102 16.8639 16.0897 16.8694C16.0774 16.875 16.0641 16.878 16.0505 16.8783C16.037 16.8786 16.0235 16.8761 16.011 16.871C15.9778 16.8584 15.9343 16.8208 15.9312 16.7911C15.9216 16.6996 15.9152 16.6039 15.9321 16.5142C15.9963 16.1731 16.056 15.8299 16.1438 15.4948C16.2737 14.9902 16.4184 14.4895 16.5777 13.9932C16.9009 13.001 17.437 12.1238 18.0944 11.3153C18.1442 11.2538 18.1902 11.189 18.2317 11.1221C18.2374 11.1123 18.2074 11.0627 18.1963 11.0637C18.0232 11.0763 17.8482 11.0823 17.6784 11.1161C17.6068 11.1303 17.5356 11.195 17.4861 11.255C17.3488 11.4192 17.2131 11.5872 17.0934 11.7644C16.5292 12.6019 16.0691 13.4921 15.7306 14.4423C15.5333 14.9965 15.3159 15.546 15.2284 16.1305C15.162 16.5663 15.1217 17.0052 15.0841 17.3292ZM43.5635 38.1262C43.962 38.0877 44.4253 38.1603 44.8704 38.34C44.9601 38.376 45.0352 38.3599 45.0828 38.285C45.3874 37.806 45.8232 37.4362 46.1751 36.996C46.3063 36.8314 46.4931 36.7096 46.6601 36.5744C46.7755 36.479 46.9226 36.4294 47.0729 36.4351C47.3894 36.4459 47.6464 36.3063 47.8769 36.1114C47.9689 36.0338 48.0452 35.9381 48.1324 35.8547C48.4332 35.567 48.7716 35.4129 49.1985 35.5576C49.3259 35.6008 49.46 35.6232 49.5897 35.6599C49.6602 35.6801 49.7036 35.759 49.6829 35.8137C49.6722 35.8455 49.6523 35.8736 49.6255 35.8942C49.5987 35.9148 49.5664 35.9271 49.5325 35.9296C49.4935 35.9337 49.4527 35.9242 49.4134 35.9157C49.2949 35.8901 49.1768 35.8617 49.059 35.8342C48.8789 35.7912 48.7001 35.8026 48.557 35.9188C48.307 36.1209 48.0711 36.3398 47.8319 36.5545C47.8249 36.5605 47.8351 36.6012 47.8485 36.6107C47.8811 36.6334 47.9188 36.6505 47.9561 36.6647C48.1451 36.7361 48.3355 36.803 48.5235 36.8769C48.5928 36.9041 48.6455 36.9041 48.7055 36.852C48.8067 36.7645 48.9127 36.6808 49.0232 36.606C49.5019 36.2829 50.0989 36.3764 50.4023 36.8548C50.5855 37.1441 50.7854 37.4419 50.779 37.811C50.7774 37.8969 50.818 37.9642 50.8863 38.016C50.908 38.0321 50.9304 38.0482 50.9483 38.0678C51.1644 38.3062 51.4247 38.4445 51.7561 38.4679C51.8841 38.4767 52.0067 38.5572 52.1319 38.6046C52.237 38.6441 52.3011 38.6059 52.3538 38.4994C52.4196 38.3662 52.3944 38.2424 52.3458 38.1129C52.1533 37.5947 51.8889 37.1166 51.5387 36.6856C51.5217 36.6647 51.5058 36.6426 51.486 36.6249C51.1009 36.2734 50.9208 35.819 50.8193 35.3258C50.8001 35.2345 50.7835 35.1423 50.7675 35.0504C50.6775 34.5379 50.4087 34.1346 50 33.8169C49.6601 33.5522 49.2867 33.3328 48.8891 33.1642C48.08 32.8206 47.2486 32.5512 46.3801 32.4C45.874 32.3119 45.3625 32.2522 44.8494 32.2677C44.5553 32.2768 44.2628 32.3482 43.9706 32.4003C43.8385 32.424 43.7098 32.4672 43.5805 32.5054C42.8825 32.7113 42.1854 32.9204 41.4776 33.0897C41.3206 33.1291 41.167 33.1809 41.0184 33.2447C40.822 33.3274 40.6959 33.3824 40.9785 33.5772C41.0973 33.6593 41.188 33.7834 41.2828 33.8955C41.3604 33.9874 41.4262 34.0894 41.4948 34.1886C41.77 34.5868 42.1609 34.7573 42.6379 34.7589C42.8138 34.7596 42.9894 34.7542 43.1644 34.7637C43.668 34.7918 44.1044 34.9904 44.4901 35.3018C44.5709 35.3671 44.6377 35.4578 44.6875 35.549C44.7156 35.6002 44.7031 35.6772 44.6964 35.7417C44.691 35.796 44.5719 35.8367 44.5294 35.8023C44.4978 35.7785 44.4694 35.7507 44.4451 35.7196C44.1645 35.3374 43.7538 35.1761 43.31 35.0889C43.1277 35.0529 42.9345 35.0649 42.7465 35.0671C42.1286 35.075 41.604 34.8931 41.2403 34.3677C41.1717 34.2685 41.1069 34.1659 41.028 34.0746C40.9411 33.9736 40.8418 33.8829 40.7448 33.7907C40.7282 33.7749 40.6911 33.7648 40.6707 33.7721C40.6525 33.7784 40.6346 33.8112 40.6321 33.834C40.5893 34.2 40.6602 34.553 40.7706 34.8985C40.8313 35.0886 40.914 35.2727 40.9881 35.4587C41.0376 35.5828 41.0899 35.7053 41.1394 35.8294C41.1803 35.9311 41.1835 36.0319 41.1567 36.1418C40.9692 36.918 41.4089 37.5183 41.9546 37.8252C42.2843 38.0113 42.6553 38.1142 43.0348 38.1249C43.1849 38.1306 43.3336 38.1262 43.5635 38.1262Z" fill="black"/>
<path d="M52.7915 45.6947C53.1842 45.6973 53.3356 45.5239 53.2666 45.1642C53.2341 44.9943 53.1804 44.8282 53.1373 44.6602C53.0945 44.4922 53.0533 44.3239 53.0109 44.1559C52.97 43.9939 52.9997 43.8385 53.0521 43.6841C53.0792 43.6033 53.1261 43.5445 53.2076 43.5123C53.2705 43.4874 53.3314 43.459 53.3921 43.4299C53.6546 43.3058 53.9001 42.8277 53.7184 42.4949C53.6485 42.3666 53.5773 42.2353 53.4841 42.1238C53.06 41.617 52.5907 41.1587 52.0092 40.8253C51.7292 40.6642 51.453 40.4972 51.1746 40.3336C51.1168 40.2992 51.0542 40.2714 51.0006 40.2316C50.6669 39.9824 50.3297 39.7377 50.0053 39.4772C49.6148 39.1633 49.3169 38.7629 48.996 38.3849C48.7965 38.1496 48.603 37.909 48.3954 37.681C48.1867 37.4502 47.9124 37.2871 47.6083 37.2133C47.4216 37.1659 47.2284 37.1454 47.0473 37.2C46.6262 37.327 46.2599 37.5455 46.001 37.9099C45.9157 38.0302 45.8362 38.1543 45.7593 38.28C45.5422 38.6362 45.4582 39.0196 45.5291 39.4323C45.5406 39.498 45.5578 39.5631 45.5712 39.6281C45.6194 39.864 45.5792 40.0753 45.4141 40.2638C45.0961 40.627 45.0556 41.0422 45.1491 41.5036C45.2558 42.0278 45.524 42.4402 45.9202 42.7854C46.6003 43.3784 47.3834 43.8445 48.2316 44.1613C48.8753 44.4025 49.5273 44.6185 50.1937 44.7884C50.6794 44.9122 51.1436 45.0884 51.5983 45.2937C51.8189 45.3932 52.0405 45.4926 52.2663 45.5807C52.4428 45.6486 52.6229 45.7112 52.7915 45.6947ZM55.4305 39.2713C55.851 39.3016 56.2304 39.1996 56.6014 39.0761C57.0251 38.9353 57.4517 38.8203 57.8958 38.7622C58.1356 38.731 58.3732 38.6722 58.6075 38.6122C59.0478 38.4995 59.4885 38.5134 59.9339 38.5728C60.5217 38.6514 61.1099 38.7344 61.7006 38.7897C62.6965 38.8825 63.6821 39.0259 64.6471 39.2943C64.9456 39.3774 65.2483 39.4475 65.5436 39.54C66.0794 39.7083 66.5555 39.978 66.9403 40.3917C66.9588 40.4113 66.9757 40.4397 66.9984 40.446C67.0469 40.459 67.1034 40.4763 67.1484 40.4634C67.2283 40.4403 67.2315 40.3709 67.2126 40.2998C67.1606 40.1065 67.1069 39.9139 67.0584 39.7197C66.9549 39.3054 66.7142 38.9912 66.3304 38.8061C65.9916 38.6425 65.6442 38.4887 65.2863 38.3744C64.5037 38.1243 63.7112 37.9042 62.9238 37.6683C62.4589 37.5291 61.9937 37.3917 61.5333 37.2392C60.7484 36.9793 60.0166 36.6089 59.3224 36.1642C59.0047 35.9612 58.6842 35.7629 58.3642 35.5633C57.7119 35.1562 57.0209 34.8218 56.3178 34.5107C55.7342 34.2527 55.1182 34.1094 54.4832 34.0427C54.3222 34.026 54.1619 34.0033 54.0004 33.991C53.6035 33.961 53.2187 34.0396 52.8439 34.1523C52.4703 34.2651 52.1044 34.4046 51.7366 34.5363C51.6609 34.5648 51.5883 34.6009 51.5201 34.644C51.3975 34.7192 51.3231 34.8202 51.3438 34.9753C51.3831 35.2658 51.4054 35.5573 51.4984 35.8402C51.6021 36.1544 51.8014 36.337 52.1347 36.3717C52.682 36.4289 53.0521 36.733 53.2957 37.2006C53.388 37.3775 53.4557 37.5679 53.5304 37.7536C53.6054 37.9393 53.6744 38.1278 53.7472 38.3144C53.9905 38.9387 54.4978 39.1923 55.1275 39.2691C55.2338 39.2826 55.3437 39.2713 55.4305 39.2713ZM14.75 25.9396L14.6533 26.3261C14.4649 27.0802 14.5488 27.7866 15.0492 28.4094C15.2248 28.6279 15.425 28.8294 15.6249 29.0277C15.9681 29.3684 16.3216 29.6991 16.6674 30.037C17.1505 30.5087 17.5633 31.038 17.9184 31.6077C18.109 31.9134 18.2505 32.2484 18.4152 32.5696C18.5008 32.7357 18.5832 32.904 18.679 33.0647C18.769 33.2157 18.9162 33.2754 19.0918 33.27C19.2853 33.2643 19.4673 33.2189 19.6289 33.1127C20.02 32.8557 20.4485 32.7082 20.9172 32.6817C21.1443 32.6687 21.2378 32.5109 21.3196 32.3384C21.3298 32.3176 21.3237 32.2851 21.3157 32.2611C21.3065 32.236 21.292 32.213 21.2733 32.1938C20.6714 31.5389 20.2151 30.7759 19.6704 30.078C19.1506 29.4114 18.6311 28.7454 18.0758 28.1062C17.6007 27.559 17.1332 27.0051 16.661 26.4553C16.4148 26.1682 16.1367 25.9169 15.8104 25.7195C15.6373 25.6113 15.4289 25.5728 15.228 25.6121C15.1386 25.6279 15.053 25.735 14.971 25.6674C14.9208 25.626 14.9358 25.5155 14.9013 25.4457C14.8314 25.3042 14.6351 25.2152 14.4479 25.2543C14.2895 25.2866 14.1356 25.3379 13.9898 25.4072C13.7599 25.519 13.5363 25.645 13.3192 25.7798C12.7812 26.113 12.2518 26.4584 11.7595 26.8579C11.2269 27.2899 10.6732 27.6957 10.1674 28.1605C9.50483 28.7709 8.88602 29.4262 8.3155 30.1216C8.22166 30.2354 8.14101 30.3592 8.07507 30.4907C7.9515 30.7402 8.00067 30.9164 8.22291 31.086C8.4263 31.2407 8.63384 31.3892 8.83596 31.5458C9.17856 31.8104 9.5448 31.8629 9.93275 31.6611C10.1109 31.5682 10.2904 31.4694 10.4468 31.345C10.8565 31.0175 11.2649 30.6875 11.6531 30.3357C12.3342 29.7186 12.8965 28.999 13.4058 28.2411C13.6746 27.8413 13.9096 27.4187 14.1452 26.9981C14.2624 26.7894 14.3579 26.5661 14.4412 26.3413C14.5051 26.1698 14.5932 26.0324 14.7583 25.9484L14.7781 25.9257C14.7691 25.931 14.7597 25.9356 14.75 25.9396ZM20.1615 19.0977C19.5778 19.0889 19.0873 19.3102 18.6764 19.7141C18.571 19.8174 18.4784 19.9326 18.3811 20.0435C18.0343 20.4382 17.6572 20.7998 17.2092 21.0834C16.9142 21.2703 16.6182 21.457 16.3232 21.6442C16.2095 21.7162 16.1699 21.8283 16.2156 21.9546C16.2335 22.0042 16.259 22.0522 16.2871 22.0974C16.4978 22.4394 16.7089 22.7811 16.9212 23.1221C17.1747 23.5338 17.4933 23.9027 17.8648 24.2147C18.246 24.5331 18.6394 24.8378 19.028 25.1482C19.0596 25.1735 19.095 25.194 19.126 25.2193C19.3546 25.4034 19.6056 25.4498 19.8843 25.3469C19.998 25.3049 20.1161 25.2752 20.2285 25.23C21.2295 24.8296 22.2615 24.5157 23.2788 24.1623C23.7874 23.9855 24.2833 23.773 24.8098 23.6482C24.836 23.6419 24.8609 23.6309 24.8858 23.6207C24.9733 23.5851 25.0055 23.5162 24.9605 23.4281C24.7779 23.0713 24.6128 22.7027 24.4017 22.363C23.7481 21.3145 22.8883 20.4537 21.8793 19.7369C21.5485 19.5022 21.1858 19.3266 20.8001 19.1956C20.5925 19.1255 20.3834 19.0863 20.1615 19.0977ZM49.1509 20.6975C49.1311 21.1244 49.2741 21.552 49.5091 21.9512C49.611 22.1245 49.7339 22.2859 49.9364 22.363C50.0357 22.4009 50.1385 22.3456 50.1366 22.2414C50.135 22.1637 50.1314 22.0769 50.0966 22.0102C49.7812 21.4007 49.8157 20.766 49.9801 20.1344C50.1653 19.4226 50.5749 18.8526 51.1953 18.4393C51.2959 18.372 51.401 18.3098 51.5098 18.2571C52.0252 18.0054 52.5265 18.0373 53.0125 18.3382C53.2883 18.5081 53.5379 18.7165 53.7536 18.9569C54.032 19.2663 54.3075 19.5786 54.577 19.8957C54.8334 20.1973 55.1438 20.4287 55.4874 20.6211C55.7875 20.7887 56.1132 20.8636 56.4551 20.8813C57.4249 20.9302 58.2624 20.6097 58.9766 19.9762C59.826 19.2234 60.2976 18.2741 60.4598 17.1584C60.5246 16.7135 60.4949 16.2796 60.4326 15.8425C60.4084 15.6689 60.3614 15.5021 60.2206 15.3783C60.1453 15.312 60.0124 15.3237 59.9773 15.409C59.7196 16.0405 59.1998 16.3355 58.5689 16.4899C58.1551 16.5913 57.7374 16.5701 57.3201 16.5218C56.5825 16.4365 55.8475 16.3292 55.1083 16.2622C54.1418 16.1747 53.1906 16.2603 52.2838 16.632C51.0089 17.1546 50.0491 18.0145 49.4571 19.2572C49.2473 19.6983 49.1477 20.1663 49.1509 20.6972V20.6975ZM26.5998 33.9512C26.5956 33.9294 26.58 33.8239 26.5545 33.7213C26.4833 33.4342 26.3673 33.1639 26.2233 32.9056C26.1783 32.8247 26.185 32.7565 26.2476 32.6883C26.8316 32.0511 27.2789 31.3159 27.7624 30.6079C27.9495 30.3338 28.0711 30.0158 28.2183 29.7155C28.2713 29.6075 28.3135 29.4944 28.3575 29.3823C28.4916 29.0413 28.7369 28.8035 29.0613 28.639C29.1574 28.59 29.2551 28.5439 29.3486 28.4905C29.5348 28.3847 29.5587 28.3042 29.4393 28.1406C29.3445 28.0112 29.2391 27.8886 29.1296 27.7712C28.8904 27.517 28.6305 27.2804 28.4086 27.013C28.166 26.7212 27.8629 26.4957 27.5976 26.2304C27.5401 26.173 27.4456 26.1692 27.3741 26.226C27.2585 26.3176 27.1397 26.4095 27.0433 26.5197C26.7569 26.8472 26.4226 27.1077 26.042 27.3231C25.8456 27.4342 25.6793 27.5997 25.5078 27.75C24.9618 28.229 24.4187 28.7111 23.8784 29.1963C23.5486 29.4925 23.2261 29.7979 22.9014 30.1004C22.8511 30.1451 22.8048 30.194 22.7631 30.2466C22.6443 30.4064 22.6015 30.5637 22.7056 30.7633C23.115 31.549 23.547 32.3192 24.1607 32.9735C24.4273 33.2574 24.6888 33.5463 24.9644 33.8214C25.1061 33.9629 25.2683 34.0866 25.4308 34.2057C25.6167 34.3418 25.8306 34.4255 26.0509 34.4959C26.3868 34.6033 26.5656 34.4492 26.6001 34.1163C26.6024 34.0898 26.6001 34.063 26.6001 33.9512H26.5998ZM24.9723 23.8367C24.8548 23.862 24.7332 23.8762 24.6198 23.9141C24.4155 23.982 24.2143 24.0597 24.0148 24.1399C23.0383 24.5315 22.0926 24.9875 21.1615 25.4735C20.6126 25.7599 20.0599 26.0387 19.5088 26.3211C19.4727 26.3394 19.4341 26.353 19.3996 26.3735C19.2001 26.4897 19.1506 26.7366 19.2885 26.9236C19.3045 26.9447 19.322 26.9656 19.3425 26.9836C19.6388 27.2441 19.8431 27.5757 20.0698 27.8915C20.4769 28.4574 20.992 28.8947 21.6363 29.1846C21.9301 29.3166 22.2047 29.3277 22.4831 29.1584C22.6207 29.0744 22.7666 29.0031 22.9023 28.9162C23.5371 28.5098 24.1667 28.0958 24.8034 27.6925C25.2231 27.4253 25.6487 27.1674 26.08 26.9189C26.2952 26.7954 26.4775 26.6479 26.6183 26.4452C26.7703 26.2257 26.9047 25.9917 27.1276 25.8278C27.1857 25.7852 27.1972 25.7125 27.1768 25.6446C27.1521 25.5559 27.1194 25.4696 27.0791 25.3866C27.0458 25.3282 27.0026 25.2758 26.9513 25.2319C26.5439 24.8618 26.1627 24.4626 25.7141 24.1386C25.6158 24.0679 25.5125 24.0043 25.405 23.9482C25.2721 23.8768 25.1236 23.8386 24.9723 23.8367Z" fill="black"/>
<path d="M30.2757 35.3763C30.252 35.2535 30.2316 35.0672 30.1786 34.89C30.1179 34.6866 30.1262 34.4965 30.2115 34.3061C30.2824 34.1476 30.3456 33.985 30.4267 33.8312C31.0583 32.6305 31.4986 31.356 31.9153 30.0723C31.928 30.0344 31.9434 29.9969 31.952 29.9583C31.9766 29.8456 31.9526 29.7445 31.8594 29.6694C31.5133 29.3915 31.1601 29.1231 30.7415 28.9557C30.5659 28.8856 30.3865 28.8344 30.1926 28.8316C30.087 28.8297 29.9819 28.7987 29.8762 28.7804C29.7836 28.7643 29.6917 28.7387 29.5984 28.7337C29.4707 28.7261 29.3599 28.7703 29.2855 28.8815C29.256 28.9262 29.2272 28.9715 29.1993 29.0173C28.4978 30.1415 27.7973 31.267 27.0939 32.3902C26.9735 32.5822 26.8576 32.7812 26.7094 32.9517C26.5817 33.0982 26.5836 33.2381 26.6456 33.3941C26.6797 33.4803 26.7308 33.5605 26.7803 33.6401C27.3716 34.5906 28.1756 35.3315 29.1054 35.9489C29.2741 36.0605 29.4615 36.1417 29.6588 36.1889C29.9541 36.2599 30.1668 36.1326 30.231 35.8386C30.2591 35.7092 30.2578 35.5737 30.2757 35.3763ZM32.0459 38.7196C32.049 38.5017 31.9906 38.2967 31.9066 38.0984C31.8811 38.0372 31.8543 37.9683 31.8064 37.927C31.5653 37.716 31.367 37.458 31.0739 37.3036C30.6199 37.0649 30.1645 36.8283 29.6677 36.6913C28.8561 36.4671 28.1032 36.1058 27.3515 35.7414C26.6104 35.3823 25.9026 34.9671 25.2177 34.5107C24.8715 34.2799 24.5021 34.0813 24.1359 33.882C23.7571 33.6762 23.3732 33.4797 22.9845 33.2927C22.8038 33.2056 22.6106 33.1418 22.4184 33.0818C22.2217 33.0202 22.0224 33.0335 21.8178 33.0692C21.6323 33.1014 21.4918 33.1851 21.3708 33.319C21.1108 33.6057 21.0438 33.9587 21.0333 34.3235C21.0282 34.4871 21.1118 34.6386 21.2456 34.7413C21.4046 34.8641 21.5662 34.9895 21.7437 35.0823C22.5075 35.4843 23.2913 35.8399 24.1308 36.0676C24.6123 36.1983 25.0874 36.3521 25.5631 36.5027C26.4945 36.7977 27.3544 37.2477 28.2085 37.7078C28.6121 37.9247 29.0144 38.1449 29.411 38.3735C29.6556 38.5146 29.89 38.6735 30.1266 38.8282C30.352 38.9757 30.5697 39.1345 30.798 39.277C30.9111 39.3474 31.0359 39.4058 31.1633 39.445C31.6135 39.5836 32.0139 39.3057 32.0459 38.8396C32.0481 38.8001 32.0459 38.76 32.0459 38.7196ZM37.2099 35.7044C37.208 36.0142 37.2719 36.321 37.3976 36.6047C37.4944 36.822 37.6412 36.9878 37.8603 37.0873C38.2042 37.2436 38.5512 37.3813 38.9341 37.4305C39.6314 37.5202 40.3173 37.6633 40.9683 37.9402C41.0673 37.9822 41.1711 38.0154 41.2758 38.0403C41.3243 38.052 41.3818 38.04 41.4326 38.0277C41.4891 38.0138 41.538 37.9105 41.5121 37.8635C41.4806 37.8048 41.4447 37.7486 41.4048 37.6952C41.0565 37.2376 40.8368 36.7298 40.7857 36.1554C40.757 35.8314 40.6561 35.5295 40.5095 35.2399C40.2924 34.8117 40.2157 34.3563 40.232 33.8798C40.2406 33.6284 40.3307 33.4102 40.4683 33.2087C40.6136 32.9959 40.8358 32.9062 41.0833 32.8595C41.3483 32.8096 41.6098 32.7398 41.8761 32.6987C42.0594 32.6706 42.2031 32.5787 42.3467 32.4796C42.4358 32.4183 42.4221 32.3046 42.3212 32.2516C42.2735 32.2272 42.2237 32.207 42.1724 32.1913C41.8116 32.0754 41.4425 31.9923 41.0654 31.9611C40.6347 31.9257 40.2026 31.9112 39.7719 31.8834C39.6103 31.873 39.4497 31.8531 39.2891 31.8341C39.0059 31.801 38.7269 31.7969 38.4443 31.8647C38.1275 31.9405 37.9494 32.1212 37.913 32.4389C37.8935 32.6116 37.8568 32.7859 37.867 32.9571C37.8909 33.3569 37.7747 33.721 37.6339 34.0854C37.5186 34.3841 37.4059 34.6857 37.3223 34.9942C37.2594 35.2247 37.2453 35.4673 37.2099 35.7044ZM59.6875 38.7771C59.2105 38.7821 58.7462 38.8642 58.2855 38.97C57.6028 39.1273 56.9211 39.2899 56.2368 39.4415C56.0009 39.4939 55.7598 39.5327 55.5191 39.5567C55.0609 39.6025 54.6352 39.4983 54.2451 39.252C54.0861 39.1516 53.927 39.0483 53.7575 38.9678C53.6129 38.8993 53.4551 38.8554 53.2996 38.814C53.239 38.7979 53.1658 38.8105 53.102 38.8241C53.0059 38.844 52.9525 38.9681 53.0043 39.0467C53.0407 39.102 53.0819 39.1573 53.131 39.2012C53.3517 39.3976 53.5704 39.5969 53.8003 39.7825C54.1052 40.0289 54.4724 40.1135 54.8549 40.1435C55.1911 40.17 55.5277 40.1931 55.8642 40.2133C56.3358 40.2411 56.8042 40.296 57.2723 40.3614C57.606 40.4084 57.9429 40.4343 58.2791 40.458C58.8177 40.4959 59.3573 40.5193 59.8957 40.5578C60.4203 40.5951 60.9439 40.6503 61.4682 40.6841C62.1684 40.7293 62.8693 40.7627 63.5699 40.7984C64.0954 40.8253 64.6223 40.8354 65.1465 40.8771C65.5511 40.909 65.9451 40.9993 66.3069 41.1985C66.4831 41.2958 66.6677 41.3785 66.8516 41.4606C66.88 41.4733 66.9394 41.461 66.9602 41.4385C66.9921 41.4025 67.0247 41.3451 67.0183 41.3027C67.0084 41.2405 66.9723 41.178 66.9337 41.1256C66.7833 40.92 66.6348 40.7122 66.4723 40.5164C66.1501 40.1283 65.7657 39.835 65.2621 39.6947C64.3007 39.427 63.3345 39.1803 62.3447 39.0449C61.7438 38.9624 61.1378 38.9157 60.5343 38.8551C60.2517 38.827 59.9694 38.8026 59.6875 38.7771ZM16.1502 36.9322C16.1672 37.1318 16.2205 37.3099 16.3227 37.4706C16.5161 37.7751 16.7138 38.0773 16.9105 38.3798C16.9325 38.4136 16.9577 38.4455 16.9842 38.4752C17.1219 38.6283 17.2687 38.6681 17.4542 38.5753C17.598 38.5023 17.7344 38.4158 17.8613 38.317C18.074 38.1527 18.2726 37.9709 18.4833 37.8047C18.7994 37.5553 19.1216 37.3127 19.4412 37.0671C19.6111 36.9363 19.7819 36.8059 19.9515 36.6736C20.3203 36.3865 20.5163 36.0063 20.5891 35.551C20.6479 35.1827 20.7239 34.8171 20.8014 34.4523C20.8717 34.122 20.8727 33.7901 20.8404 33.457C20.8276 33.3256 20.758 33.2567 20.6188 33.2132C20.4592 33.163 20.3506 33.186 20.2117 33.2754C19.569 33.6906 18.9154 34.0895 18.2672 34.4965C18.1521 34.5663 18.0422 34.644 17.9383 34.7293C17.5384 35.0676 17.1422 35.41 16.7496 35.7565C16.4389 36.0313 16.2291 36.3666 16.1726 36.7835C16.1652 36.8362 16.1566 36.8886 16.1502 36.9322ZM32.7895 38.3836C32.8371 38.6997 32.8834 39.0038 33.0105 39.2867C33.0539 39.3831 33.1053 39.4813 33.1746 39.5599C33.3336 39.7405 33.4948 39.9221 33.6756 40.0813C33.9872 40.356 34.3151 40.6134 34.6347 40.8793C35.2235 41.3678 35.811 41.8585 36.4004 42.3464C36.5556 42.4746 36.7118 42.6032 36.8778 42.7165C36.9867 42.7907 37.1118 42.8451 37.2351 42.8959C37.3529 42.9442 37.4378 42.9142 37.5145 42.8129C37.5544 42.7595 37.5917 42.703 37.6205 42.643C37.7073 42.4611 37.8462 42.3509 38.0458 42.3073C38.1368 42.2877 38.2275 42.2552 38.3121 42.2154C38.4127 42.1677 38.4593 42.0537 38.4318 41.9441C38.3727 41.7085 38.2827 41.4827 38.1135 41.3046C37.9397 41.1191 37.7538 40.945 37.5569 40.7836C37.3692 40.6323 37.1623 40.5041 36.9586 40.3734C36.7402 40.2329 36.5646 40.0547 36.4142 39.8447C36.1361 39.4512 35.8506 39.0628 35.5578 38.6798C35.1798 38.19 34.7522 37.7466 34.2461 37.3819C34.1488 37.3118 34.0645 37.2234 33.9731 37.1444C33.9045 37.0847 33.8288 37.0775 33.7515 37.1277C33.5823 37.2373 33.4077 37.3396 33.2467 37.4599C32.9367 37.6936 32.7885 38.0106 32.7895 38.3836ZM60.8226 47.9615C60.9615 47.9381 61.1212 47.916 61.2789 47.8838C61.9654 47.7458 62.6496 47.5996 63.3467 47.5156C63.8681 47.4527 64.3837 47.3476 64.9032 47.2667C65.2091 47.2194 65.516 47.1695 65.8244 47.1445C66.7066 47.0732 67.547 46.8398 68.366 46.5227C68.6419 46.416 68.9104 46.291 69.185 46.1817C69.4379 46.0813 69.4772 45.847 69.5251 45.6335C69.5592 45.4806 69.452 45.3572 69.3287 45.2627C69.3086 45.2452 69.2832 45.2344 69.2564 45.2322C69.2296 45.2299 69.2028 45.2362 69.1799 45.2501C69.109 45.289 69.0391 45.3294 68.9666 45.3644C68.3341 45.673 67.6655 45.7873 66.964 45.733C66.7222 45.7124 66.4799 45.6995 66.2373 45.6941C65.8187 45.6875 65.4004 45.6963 64.9818 45.69C64.794 45.6872 64.6069 45.6625 64.4192 45.6486C64.3659 45.6449 64.3122 45.6398 64.2592 45.6417C63.9086 45.6546 63.5584 45.6793 63.2078 45.6815C62.4054 45.6865 61.7036 45.954 61.0841 46.4485C60.7907 46.6835 60.4979 46.9197 60.2089 47.16C60.1264 47.2287 60.052 47.3064 59.9873 47.3918C59.9014 47.5058 59.9279 47.6561 60.0355 47.7527C60.1498 47.8547 60.2878 47.9081 60.4363 47.9305C60.5563 47.9482 60.6786 47.9504 60.8226 47.9615ZM30.8146 34.6263C30.8006 34.8126 30.851 34.9775 30.95 35.1259C31.2262 35.5393 31.5283 35.934 31.8932 36.2741C32.028 36.3998 32.1998 36.4895 32.3632 36.5817C32.46 36.6363 32.5986 36.5549 32.6046 36.4459C32.6094 36.3397 32.604 36.2334 32.5883 36.1282C32.5634 35.9564 32.5264 35.7869 32.4961 35.6163C32.4114 35.1407 32.4558 34.6787 32.7052 34.2591C33.0344 33.7049 33.2882 33.1153 33.5638 32.5364C33.7934 32.0545 33.9818 31.5527 34.1874 31.0595C34.2027 31.0229 34.2145 30.9837 34.2247 30.9458C34.2899 30.6944 34.2627 30.4797 34.0341 30.3029C33.7471 30.0812 33.4801 29.8342 33.2004 29.6034C33.1271 29.5447 33.0463 29.4958 32.96 29.4581C32.7247 29.3523 32.5462 29.4003 32.3955 29.6087C32.2927 29.7515 32.2323 29.9132 32.1905 30.0843C32.0917 30.4858 31.9883 30.8861 31.8805 31.2853C31.8457 31.4138 31.7933 31.5379 31.7483 31.6633C31.5956 32.0909 31.4408 32.5178 31.291 32.946C31.1683 33.2989 31.0481 33.6527 30.9305 34.0074C30.8622 34.2095 30.7964 34.4138 30.8146 34.6263ZM47.5554 46.5029C47.6532 46.4785 47.7614 46.4643 47.8591 46.4249C48.051 46.3478 48.1069 46.123 47.9769 45.9603C47.9263 45.8979 47.8654 45.8444 47.7968 45.8021C47.6484 45.7099 47.4964 45.6234 47.3412 45.5429C46.1694 44.9331 44.9474 44.4392 43.6983 44.0078C43.3548 43.8894 43.0137 43.7634 42.6727 43.6377C42.1031 43.4277 41.5127 43.2875 40.9249 43.1416C40.7055 43.087 40.4776 43.0661 40.2531 43.0317C39.8782 42.9739 39.5114 42.8909 39.1844 42.6897C38.9245 42.5302 38.6502 42.4339 38.3408 42.474C38.2485 42.486 38.1543 42.5056 38.0678 42.5394C37.8226 42.6341 37.7623 42.7399 37.7798 43.0011C37.7856 43.0851 37.8108 43.1586 37.8746 43.2142C37.9963 43.3197 38.1148 43.4299 38.2437 43.5256C38.9804 44.0725 39.7968 44.4319 40.719 44.5355C40.7723 44.5415 40.8262 44.5437 40.8805 44.5456C42.249 44.598 43.5387 44.9634 44.7696 45.5356C45.5528 45.8997 46.3456 46.2291 47.1879 46.4346C47.3045 46.4624 47.4245 46.4785 47.5554 46.5029ZM34.3269 37.0115C34.4192 37.1466 34.5051 37.2982 34.6175 37.4277C34.7222 37.5477 34.8477 37.6544 34.9773 37.7492C35.3838 38.0454 35.7108 38.4167 36.0278 38.7992C36.2245 39.0366 36.4206 39.2747 36.6252 39.505C36.9158 39.8315 37.2734 40.0674 37.6792 40.23C37.9417 40.3349 38.2045 40.4394 38.473 40.5265C39.1407 40.7438 39.801 40.9737 40.376 41.3905C40.4603 41.4515 40.5465 41.4253 40.5628 41.3327C40.6046 41.0978 40.7253 40.9153 40.9013 40.7567C40.9686 40.6964 41.014 40.609 41.0596 40.5284C41.1222 40.4176 41.1206 40.3045 41.0724 40.183C40.976 39.9392 40.8355 39.744 40.6008 39.6054C39.8949 39.1876 39.1731 38.7967 38.4369 38.4335C37.9181 38.1777 37.3951 37.9295 36.8756 37.6756C36.2568 37.3734 35.6178 37.1242 34.9425 36.9802C34.7612 36.9414 34.5699 36.9493 34.3831 36.9398C34.37 36.9392 34.3553 36.9736 34.3269 37.0115ZM15.4363 22.5338C15.481 23.2355 15.6518 23.8336 15.9625 24.3932C16.2435 24.8991 16.5851 25.3633 16.9488 25.8114C17.2949 26.2386 17.6717 26.6422 18.0114 27.0745C19.0236 28.3607 20.0284 29.653 21.0275 30.9493C21.3969 31.4286 21.7817 31.8919 22.2217 32.3094C22.3188 32.4019 22.4075 32.5036 22.5046 32.5964C22.5423 32.6318 22.5898 32.6593 22.6374 32.682C22.7077 32.7155 22.8169 32.6381 22.8047 32.5623C22.7931 32.4972 22.7756 32.4331 22.7527 32.371C22.6633 32.1193 22.5665 31.8698 22.4806 31.6172C22.3242 31.1583 22.0751 30.745 21.8452 30.3221C21.7555 30.1579 21.6556 29.9987 21.5681 29.833C21.4753 29.6539 21.3416 29.4986 21.1776 29.3795C20.9927 29.2446 20.8136 29.1019 20.6214 28.9778C20.3257 28.7867 20.061 28.561 19.8068 28.32C19.2139 27.7579 18.893 27.0717 18.8457 26.2642C18.8343 26.076 18.7704 25.9273 18.6309 25.8082C18.4983 25.6945 18.3649 25.5809 18.2231 25.4789C17.9038 25.2486 17.6318 24.9736 17.385 24.6695C16.8527 24.0126 16.3246 23.3526 15.8641 22.6427C15.8067 22.5537 15.7307 22.4754 15.6566 22.3983C15.5959 22.3352 15.489 22.3633 15.4596 22.447C15.4487 22.475 15.4409 22.5041 15.4363 22.5338Z" fill="black"/>
<path d="M34.8467 34.9184C34.9527 35.4032 35.0724 35.8677 35.2394 36.319C35.2656 36.3897 35.3301 36.4522 35.3898 36.5046C35.9659 37.014 36.6428 37.3994 37.3774 37.6364C37.4283 37.6539 37.4828 37.6582 37.5358 37.6488C37.5834 37.6383 37.644 37.6071 37.6616 37.5689C37.6769 37.5348 37.6552 37.464 37.6249 37.434C37.5585 37.369 37.4732 37.3225 37.4014 37.2622C37.1788 37.0746 37.031 36.8429 36.9777 36.5542C36.9556 36.4364 36.9251 36.3204 36.8863 36.2069C36.6858 35.6084 36.6916 35.0201 37.0023 34.4605C37.2564 34.0023 37.3378 33.5062 37.3902 32.9991C37.4039 32.8664 37.4231 32.7341 37.4483 32.6034C37.4821 32.4183 37.5708 32.2474 37.7031 32.1123C37.8644 31.9469 37.8525 31.8726 37.6788 31.7195C37.6386 31.6838 37.5981 31.6472 37.5527 31.6191C37.2433 31.428 36.9358 31.2338 36.6213 31.0519C36.4585 30.9581 36.3349 30.984 36.2417 31.1448C36.128 31.3405 36.0287 31.5471 35.9511 31.7593C35.8635 31.9979 35.7934 32.2424 35.7413 32.491C35.6258 33.0464 35.3984 33.5577 35.1462 34.0617C35.0743 34.2054 35.0022 34.35 34.9495 34.501C34.9006 34.638 34.8789 34.7842 34.8467 34.9184ZM7.23599 28.993C7.86309 28.9813 8.44134 28.8319 8.94456 28.4504C9.17018 28.2804 9.39277 28.1065 9.61221 27.9288C10.2795 27.3846 10.9395 26.8317 11.6104 26.2923C12.1369 25.8692 12.7091 25.5152 13.3403 25.2619C13.5019 25.1969 13.6721 25.1523 13.8359 25.0923C13.9307 25.0576 13.9403 24.9269 13.8586 24.8634C13.7698 24.7945 13.6711 24.7516 13.5581 24.7788C13.3225 24.8356 13.0843 24.8858 12.854 24.96C11.724 25.3263 10.6298 25.783 9.54005 26.2513C8.69838 26.6132 7.84809 26.9552 7.00418 27.3123C6.79376 27.4017 6.58398 27.4996 6.39209 27.6209C6.05203 27.8365 5.98147 28.0257 6.08811 28.4034C6.16985 28.6936 6.34036 28.903 6.67371 28.9314C6.86145 28.9481 7.04856 28.9724 7.23599 28.993ZM42.2154 42.6442C42.5526 42.6531 42.8872 42.6493 43.2183 42.5593C43.6165 42.4506 43.9173 42.2132 44.1587 41.9005C44.4521 41.5206 44.4291 40.9124 44.1191 40.5142C43.6931 39.967 43.1689 39.5798 42.4511 39.481C42.1439 39.4386 41.8435 39.3632 41.5309 39.4121C41.4909 39.4184 41.4491 39.4188 41.4114 39.4304C41.2237 39.4911 41.1432 39.6079 41.2406 39.7952C41.2652 39.8429 41.2869 39.8915 41.3121 39.9392C41.4466 40.1931 41.4415 40.4429 41.3265 40.7075C41.1142 41.196 41.1209 41.1992 40.7016 41.6735C40.5528 41.8415 40.5605 42.139 40.7291 42.2861C40.9788 42.5043 41.2703 42.6351 41.6085 42.6436C41.8106 42.648 42.013 42.6442 42.2154 42.6442Z" fill="black"/>
<path d="M34.6525 36.2568C34.6126 36.0449 34.5628 35.8235 34.5306 35.5996C34.4946 35.3627 34.4705 35.1242 34.4584 34.885C34.4444 34.5417 34.5545 34.2297 34.7442 33.9423C34.8917 33.7194 35.0469 33.498 35.1657 33.2605C35.3505 32.8904 35.5322 32.5156 35.6685 32.1265C35.7886 31.7858 35.78 31.4166 35.7761 31.056C35.7755 30.985 35.7302 30.9139 35.6599 30.9114C35.4853 30.9051 35.362 30.798 35.2219 30.7219C35.1513 30.6834 35.0801 30.6423 35.0041 30.6174C34.7675 30.5384 34.6197 30.5937 34.4913 30.8028C34.2234 31.2395 34.0583 31.7189 33.8993 32.2011C33.7991 32.5049 33.6812 32.803 33.58 33.1064C33.4574 33.4734 33.3453 33.8435 33.2269 34.2114C33.1534 34.4397 33.0736 34.6668 33.0011 34.8954C32.8986 35.2184 32.9788 35.503 33.2096 35.7439C33.4398 35.9875 33.6779 36.2236 33.9236 36.4519C34.0299 36.5492 34.1643 36.6237 34.2962 36.6865C34.4514 36.7608 34.5919 36.6796 34.628 36.5072C34.6442 36.4298 34.6439 36.349 34.6525 36.2568ZM14.1019 42.4563C14.083 42.3629 14.0648 42.2435 14.0345 42.1276C13.8988 41.6081 13.7104 41.1114 13.431 40.6478C12.8095 39.6146 12.2491 38.5466 11.7528 37.4492C11.6369 37.194 11.4935 36.9509 11.3626 36.702C11.201 36.3954 10.8958 36.3044 10.595 36.2391C10.3539 36.1866 10.1173 36.4718 10.1589 36.7443C10.1809 36.8871 10.2304 37.0304 10.293 37.1618C10.4018 37.3911 10.5171 37.6191 10.6534 37.8332C11.1145 38.5592 11.4922 39.3269 11.8384 40.111C12.082 40.6633 12.3665 41.191 12.7314 41.6779C13.0252 42.0698 13.4029 42.3714 13.7612 42.6951C13.8199 42.7481 13.8946 42.7895 13.9831 42.7566C14.0578 42.7289 14.1044 42.6357 14.1019 42.5217V42.4563ZM3.00178 34.9765C3.0053 35.185 3.14643 35.2866 3.30767 35.232C3.48999 35.1704 3.64038 35.0574 3.78023 34.9298C4.16946 34.5745 4.51494 34.1823 4.80422 33.7437C5.33937 32.9315 5.70879 32.0451 5.99105 31.1211C6.03001 30.9938 6.04214 30.8586 6.07631 30.7295C6.13059 30.5242 6.16826 30.3089 6.25767 30.1184C6.38187 29.8544 6.35505 29.6305 6.17401 29.412C6.13985 29.371 6.1143 29.3204 6.07439 29.2863C5.99457 29.2175 5.91155 29.1101 5.8231 29.1035C5.69123 29.094 5.59321 29.2203 5.50029 29.3103C5.44473 29.364 5.41472 29.4449 5.37768 29.5162C4.85339 30.5271 4.37764 31.5581 4.01971 32.64C3.94052 32.8797 3.81951 33.1061 3.71893 33.3389C3.66688 33.4604 3.61994 33.5845 3.56471 33.7049C3.53295 33.7776 3.49469 33.8473 3.4504 33.9133C3.25786 34.1921 3.14227 34.5054 3.02892 34.8199C3.00721 34.8809 3.00657 34.9497 3.00178 34.9765ZM15.6367 38.0495C15.6728 38.8604 15.798 39.6089 16.0863 40.3219C16.1961 40.5932 16.3341 40.8562 16.4867 41.1063C16.6689 41.4029 16.8192 41.7176 16.935 42.0452C17.2486 42.9408 17.4899 43.8572 17.7502 44.7685C17.7754 44.8566 17.806 44.9454 17.8511 45.025C17.8993 45.1099 18.0404 45.108 18.0896 45.0228C18.1279 44.9555 18.1582 44.8784 18.17 44.802C18.2173 44.4957 18.2036 44.1862 18.1554 43.8837C18.0094 42.9749 17.8603 42.0667 17.6889 41.1625C17.5768 40.5714 17.4002 39.9966 17.065 39.4829C16.9492 39.3018 16.8692 39.1007 16.8293 38.8901C16.7434 38.4635 16.5253 38.0931 16.3152 37.7211C16.2578 37.6191 16.1661 37.5319 16.0761 37.453C15.9101 37.3068 15.6648 37.4119 15.6578 37.6156C15.6527 37.7754 15.6428 37.9355 15.6367 38.0495ZM9.92449 36.0749C10.0171 36.06 10.1113 36.0512 10.2023 36.0291C10.3974 35.9808 10.5915 35.9264 10.785 35.8724C10.8367 35.8579 10.8875 35.839 10.9367 35.8172C11.0724 35.7556 11.1346 35.6321 11.0925 35.4881C11.0676 35.3981 11.0307 35.3117 10.9826 35.2314C10.5644 34.56 10.2489 33.8375 9.89831 33.132C9.52153 32.3741 8.94009 31.7842 8.26605 31.2777C8.10161 31.1539 7.92696 31.1198 7.73857 31.2231C7.66034 31.266 7.61884 31.3361 7.6332 31.4217C7.64853 31.5126 7.67854 31.6023 7.7092 31.6901C7.86789 32.1452 8.09204 32.5712 8.32161 32.994C8.42379 33.1819 8.53011 33.3676 8.63005 33.5564C8.87623 34.0213 9.04291 34.5098 9.0892 35.0365C9.10198 35.1815 9.13901 35.3258 9.17797 35.4666C9.20255 35.5554 9.24343 35.6422 9.29068 35.7221C9.43181 35.958 9.62946 36.1001 9.92449 36.0749ZM50.4418 25.0715C50.4482 24.9711 50.4559 24.9048 50.4562 24.8381C50.4565 24.7604 50.4042 24.7175 50.3362 24.6966C50.2608 24.6736 50.1625 24.7276 50.1503 24.8091C50.0849 25.2499 49.8834 25.6472 49.7477 26.0653C49.6072 26.4973 49.4868 26.9353 49.4689 27.3935C49.4581 27.6651 49.4913 27.9269 49.641 28.1634C49.6698 28.2085 49.6947 28.2565 49.7282 28.2979C50.1142 28.7725 50.5459 28.7852 50.9866 28.4065C51.2704 28.1628 51.3694 27.835 51.3145 27.4642C51.2786 27.2261 51.205 26.995 51.0964 26.7796C50.9527 26.4929 50.8039 26.208 50.6567 25.9225C50.5134 25.6446 50.4281 25.3532 50.4418 25.0715ZM49.5057 36.7541C49.4712 36.7589 49.4028 36.762 49.338 36.7784C49.2323 36.8036 49.1387 36.8643 49.0732 36.9502C49.0077 37.0361 48.9745 37.1418 48.9791 37.2493C48.9823 37.3418 48.9932 37.4381 49.0238 37.5247C49.2058 38.0369 49.4734 38.4982 49.9041 38.8462C50.1337 39.0316 50.3783 39.1993 50.6232 39.3657C50.8253 39.5031 51.0559 39.5826 51.294 39.6373C51.3455 39.6493 51.401 39.6512 51.454 39.6474C51.5661 39.6385 51.6402 39.492 51.5712 39.4033C51.5064 39.3199 51.4256 39.2476 51.347 39.1759C51.1986 39.0401 51.0424 38.9119 50.8972 38.773C50.7378 38.6201 50.6369 38.4385 50.6155 38.2118C50.5957 37.9999 50.5558 37.7896 50.5191 37.5793C50.4275 37.0519 50.0692 36.7522 49.5057 36.7541ZM0.861846 36.78C0.915488 36.7671 1.03363 36.7418 1.14985 36.7112C1.77887 36.5476 2.246 36.1645 2.61511 35.6501C2.65343 35.5964 2.68312 35.5352 2.70931 35.4739C2.76359 35.3492 2.66971 35.2753 2.59979 35.1985C2.54678 35.1404 2.46504 35.1417 2.37819 35.1954C2.31018 35.2377 2.24632 35.2873 2.17895 35.3312C1.80761 35.5718 1.43531 35.8112 1.06364 36.0518C0.95093 36.1244 0.836622 36.1952 0.729018 36.2748C0.665517 36.3238 0.60817 36.3802 0.558194 36.4428C0.506787 36.5059 0.471345 36.5789 0.516685 36.6629C0.558832 36.7405 0.627481 36.7753 0.714011 36.7794C0.741152 36.781 0.768292 36.78 0.861846 36.78ZM28.4757 10.3023C28.4189 10.2979 28.3831 10.3153 28.3943 10.3806L28.3879 10.3746C28.4431 10.3753 28.4709 10.3494 28.4674 10.2938L28.4757 10.3023ZM28.4674 10.2938C28.5201 10.2919 28.5463 10.2651 28.5453 10.2126L28.5555 10.2228C28.5045 10.2253 28.4741 10.248 28.4764 10.302L28.4674 10.2938Z" fill="black"/>
<path d="M28.5457 10.2126L28.6245 10.1337L28.6325 10.1406L28.5552 10.2227L28.5457 10.2126ZM28.6248 10.1337L28.6475 10.1223L28.6325 10.1403L28.6248 10.1337ZM29.5237 5.80736L29.4895 5.76947C29.4917 5.77863 29.4911 5.79221 29.4965 5.79536C29.5061 5.80042 29.5189 5.79915 29.5304 5.80042L29.5237 5.80736Z" fill="black"/>
</g>
<defs>
<clipPath id="clip0_14_573">
<rect width="70" height="48" fill="white"/>
</clipPath>
</defs>
</svg>
