<svg width="44" height="44" viewBox="0 0 44 44" fill="none" xmlns="http://www.w3.org/2000/svg">
<rect width="44" height="44" fill="#FB4B4D"/>
<path d="M26.1666 29.5V27.8333C26.1666 26.9493 25.8154 26.1014 25.1903 25.4763C24.5652 24.8512 23.7173 24.5 22.8333 24.5H16.1666C15.2825 24.5 14.4347 24.8512 13.8096 25.4763C13.1844 26.1014 12.8333 26.9493 12.8333 27.8333V29.5M31.1666 29.5V27.8333C31.166 27.0948 30.9202 26.3773 30.4677 25.7936C30.0152 25.2099 29.3817 24.793 28.6666 24.6083M25.3333 14.6083C26.0503 14.7919 26.6858 15.2089 27.1396 15.7936C27.5935 16.3783 27.8398 17.0974 27.8398 17.8375C27.8398 18.5776 27.5935 19.2967 27.1396 19.8814C26.6858 20.4661 26.0503 20.8831 25.3333 21.0667M22.8333 17.8333C22.8333 19.6743 21.3409 21.1667 19.4999 21.1667C17.659 21.1667 16.1666 19.6743 16.1666 17.8333C16.1666 15.9924 17.659 14.5 19.4999 14.5C21.3409 14.5 22.8333 15.9924 22.8333 17.8333Z" stroke="white" stroke-width="1.5" stroke-linecap="round" stroke-linejoin="round"/>
</svg>
