<svg width="200" height="71" viewBox="0 0 200 71" fill="none" xmlns="http://www.w3.org/2000/svg">
<g clip-path="url(#clip0_13_403)">
<path d="M99.9242 2.09106L91.4747 11.9128L91.3418 12.0672L91.1526 12.0659L79.126 11.977L79.2034 25.778L79.2046 25.9951L79.07 26.1477L70.5111 35.8438L79.07 45.5398L79.2046 45.6923L79.2034 45.9094L79.126 59.7104L91.1526 59.6216L91.3418 59.6203L91.4747 59.7747L99.9242 69.5964L108.374 59.7747L108.506 59.6203L108.696 59.6216L120.722 59.7104L120.645 45.9094L120.644 45.6923L120.778 45.5398L129.337 35.8438L120.778 26.1477L120.644 25.9951L120.645 25.778L120.722 11.977L108.696 12.0659L108.506 12.0672L108.374 11.9128L99.9242 2.09106V2.09106Z" stroke="black" stroke-width="1.02941"/>
<path d="M109.379 27.8359C109.295 27.5056 108.886 27.5267 108.842 27.8671C108.587 29.8618 110.06 34.5792 109.534 36.7621C109.53 36.7762 109.527 36.7903 109.523 36.8044C109.409 37.2732 108.808 37.1813 108.803 36.6949C108.786 34.8092 108.353 32.7472 107.425 31.4845C103.93 26.727 107.663 23.2169 107.525 22.0791C107.506 21.9247 107.377 21.8372 107.248 21.8868C107.243 21.8891 107.239 21.8904 107.238 21.8917C107.015 22.0325 106.805 22.2036 106.597 22.3698C105.198 23.4853 103.917 24.8272 103.178 26.6342C102.752 27.6732 102.64 28.8326 102.397 29.9353C102.304 30.3549 102.197 30.7701 102.073 31.1791C101.934 31.6379 101.739 32.0985 101.43 32.4384C101.292 32.5902 101.123 32.7023 100.935 32.7441C100.444 32.8533 100.184 32.4618 100.091 32.0012C99.8311 30.7208 100.022 29.4281 100.119 28.1394C100.511 22.9508 95.5811 22.4679 97.3826 14.9025C97.8602 12.8972 91.4089 19.4867 93.5822 25.2201C94.0073 26.3412 93.9681 27.411 93.486 28.4922C92.9723 29.6427 92.3407 30.6848 92.0291 31.9449C91.9171 32.398 91.8543 32.8563 91.8048 33.3222C91.7412 33.9212 91.893 34.8216 91.203 34.9772C90.9171 35.0419 90.5207 35.0063 90.2839 34.7916C90.0988 34.6236 89.9964 34.362 89.9355 34.1002C89.65 32.8765 89.6852 31.6388 89.8209 30.3897C89.9401 29.2901 90.0237 27.2188 89.0271 29.286C85.8162 35.9467 85.9311 44.2428 89.8512 50.4925C91.3583 52.8955 93.2706 54.4271 95.7728 55.1269C100.86 56.5493 106.944 56.1187 110.147 51.1027C111.37 49.1866 112.105 46.8467 112.586 44.555C113.2 41.6273 113.317 38.8462 112.356 36.0052C111.424 33.2482 110.107 30.6856 109.379 27.8359Z" fill="black"/>
</g>
<path d="M160.531 36.3438C160.531 31.9255 164.113 28.3438 168.531 28.3438C172.95 28.3438 176.531 31.9255 176.531 36.3438C176.531 40.762 172.95 44.3438 168.531 44.3438C164.113 44.3438 160.531 40.762 160.531 36.3438Z" fill="#8B83F6" stroke="black"/>
<path d="M22.5312 36.3438C22.5312 31.9255 26.113 28.3438 30.5312 28.3438C34.9495 28.3438 38.5312 31.9255 38.5312 36.3438C38.5312 40.762 34.9495 44.3438 30.5312 44.3438C26.113 44.3438 22.5312 40.762 22.5312 36.3438Z" fill="#FB4B4D" stroke="black"/>
<defs>
<clipPath id="clip0_13_403">
<rect width="61" height="70" fill="white" transform="translate(69.0312 0.84375)"/>
</clipPath>
</defs>
</svg>
